<svg width="320" height="371" viewBox="0 0 320 371" fill="none" xmlns="http://www.w3.org/2000/svg"><path fill-rule="evenodd" clip-rule="evenodd" d="M95.473 83.341c-.526-3.611-4.562-5.506-7.564-3.43-38.603 26.674-60.96 73.739-53.738 123.318 10.146 69.665 74.846 117.914 144.511 107.767 69.664-10.146 117.913-74.846 107.767-144.511-9.357-64.241-65.104-110.272-128.355-109.092-2.936.054-5.09 2.71-4.667 5.616.374 2.569 2.65 4.416 5.245 4.376 58.123-.883 109.279 41.477 117.881 100.541 9.351 64.2-35.113 123.824-99.312 133.174-64.2 9.351-123.824-35.113-133.175-99.312-6.633-45.544 13.816-88.784 49.18-113.408 1.629-1.133 2.513-3.076 2.227-5.038z" fill="#DCB032"/><path d="M110.36 74.184l-19.933 35.071-20.406-34.797 40.339-.274z" fill="#DCB032"/><path d="M86.625 185.696l-2.75-8.961h-.07c.099 1.823.148 3.039.148 3.649v5.312H81.79v-11.422h3.297l2.703 8.735h.047l2.867-8.735H94v11.422h-2.258v-5.406c0-.255.003-.549.008-.883.01-.333.047-1.219.11-2.656h-.07l-2.946 8.945h-2.219zm13.687-7.203c-.505 0-.9.162-1.187.485-.287.317-.45.77-.492 1.359h3.344c-.011-.589-.165-1.042-.461-1.359-.297-.323-.698-.485-1.204-.485zm.336 7.36c-1.406 0-2.505-.388-3.296-1.165-.792-.776-1.188-1.875-1.188-3.296 0-1.464.365-2.594 1.094-3.391.734-.802 1.747-1.203 3.039-1.203 1.234 0 2.195.351 2.883 1.055.687.703 1.031 1.674 1.031 2.914v1.156h-5.633c.026.677.227 1.206.602 1.586.375.38.901.57 1.578.57.526 0 1.023-.055 1.492-.164a7.487 7.487 0 0 0 1.469-.523v1.843a5.454 5.454 0 0 1-1.336.461c-.474.104-1.052.157-1.735.157zm8.266 0c-1.026 0-1.833-.399-2.422-1.196-.583-.797-.875-1.901-.875-3.312 0-1.433.297-2.547.891-3.344.599-.802 1.422-1.203 2.469-1.203 1.099 0 1.937.427 2.515 1.281h.078a9.81 9.81 0 0 1-.179-1.742v-2.797h2.39v12.156h-1.828l-.461-1.133h-.101c-.542.86-1.368 1.29-2.477 1.29zm.836-1.899c.609 0 1.055-.177 1.336-.531.286-.354.443-.956.469-1.805v-.258c0-.937-.146-1.609-.438-2.015-.286-.407-.755-.61-1.406-.61-.531 0-.945.227-1.242.68-.292.448-.438 1.102-.438 1.961s.149 1.505.446 1.937c.296.428.721.641 1.273.641zm6.422-9.25c0-.776.432-1.164 1.297-1.164.864 0 1.297.388 1.297 1.164 0 .37-.11.659-.328.867-.214.203-.537.305-.969.305-.865 0-1.297-.391-1.297-1.172zm2.484 10.992h-2.383v-8.734h2.383v8.734zm6.055.157c-2.719 0-4.078-1.493-4.078-4.477 0-1.484.37-2.617 1.109-3.398.74-.787 1.8-1.18 3.18-1.18 1.01 0 1.917.198 2.719.594l-.703 1.843a11.298 11.298 0 0 0-1.047-.367 3.29 3.29 0 0 0-.969-.148c-1.24 0-1.86.88-1.86 2.64 0 1.709.62 2.563 1.86 2.563.458 0 .883-.06 1.273-.18a4.702 4.702 0 0 0 1.172-.578v2.039a3.83 3.83 0 0 1-1.172.508c-.39.094-.885.141-1.484.141zm10.234-.157l-.461-1.187h-.062c-.401.505-.815.857-1.242 1.054-.422.193-.974.29-1.657.29-.838 0-1.5-.24-1.984-.719-.479-.479-.719-1.162-.719-2.047 0-.927.323-1.609.969-2.047.651-.443 1.63-.687 2.938-.734l1.515-.047v-.383c0-.885-.453-1.328-1.359-1.328-.698 0-1.518.211-2.461.633l-.789-1.61c1.005-.526 2.12-.789 3.344-.789 1.171 0 2.07.255 2.695.766.625.51.937 1.286.937 2.328v5.82h-1.664zm-.703-4.047l-.922.032c-.692.02-1.208.145-1.547.375-.338.229-.507.578-.507 1.047 0 .671.385 1.007 1.156 1.007.552 0 .992-.159 1.32-.476.334-.318.5-.74.5-1.266v-.719zm8.508 2.305c.417 0 .917-.091 1.5-.273v1.773c-.594.266-1.323.399-2.188.399-.953 0-1.648-.24-2.085-.719-.433-.485-.649-1.209-.649-2.172v-4.211h-1.14v-1.008l1.312-.797.688-1.843h1.523v1.859h2.445v1.789h-2.445v4.211c0 .338.094.588.281.75.193.161.446.242.758.242zm3.172-9.25c0-.776.432-1.164 1.297-1.164.864 0 1.297.388 1.297 1.164 0 .37-.11.659-.328.867-.214.203-.537.305-.969.305-.865 0-1.297-.391-1.297-1.172zm2.484 10.992h-2.383v-8.734h2.383v8.734zm4.406-4.383c0 .865.141 1.519.422 1.961.287.443.75.664 1.391.664.635 0 1.091-.218 1.367-.656.281-.442.422-1.099.422-1.969 0-.864-.141-1.513-.422-1.945-.281-.432-.742-.648-1.383-.648-.635 0-1.093.216-1.375.648-.281.427-.422 1.076-.422 1.945zm6.04 0c0 1.422-.375 2.534-1.125 3.336s-1.795 1.204-3.133 1.204c-.839 0-1.578-.183-2.219-.547a3.693 3.693 0 0 1-1.477-1.586c-.343-.688-.515-1.49-.515-2.407 0-1.427.372-2.536 1.117-3.328.745-.791 1.792-1.187 3.141-1.187.838 0 1.578.182 2.218.547a3.648 3.648 0 0 1 1.477 1.57c.344.682.516 1.482.516 2.398zm10.031 4.383H166.5v-5.101c0-.63-.112-1.102-.336-1.414-.224-.318-.581-.477-1.07-.477-.667 0-1.149.224-1.446.672-.296.443-.445 1.18-.445 2.211v4.109h-2.383v-8.734h1.821l.32 1.117h.133c.265-.422.63-.739 1.094-.953.468-.219 1-.328 1.593-.328 1.016 0 1.787.276 2.313.828.526.547.789 1.339.789 2.375v5.695zm11.203 0h-2.422v-9.406h-3.102v-2.016h8.626v2.016h-3.102v9.406zm12.734 0h-2.382v-5.101c0-1.261-.469-1.891-1.407-1.891-.666 0-1.148.227-1.445.68-.297.453-.445 1.187-.445 2.203v4.109h-2.383V173.54h2.383v2.477c0 .192-.019.645-.055 1.359l-.055.703h.125c.532-.854 1.375-1.281 2.532-1.281 1.026 0 1.804.276 2.335.828.532.552.797 1.344.797 2.375v5.695zm6.071-7.203c-.506 0-.901.162-1.188.485-.286.317-.45.77-.492 1.359h3.344c-.011-.589-.164-1.042-.461-1.359-.297-.323-.698-.485-1.203-.485zm.336 7.36c-1.407 0-2.506-.388-3.297-1.165-.792-.776-1.188-1.875-1.188-3.296 0-1.464.365-2.594 1.094-3.391.734-.802 1.747-1.203 3.039-1.203 1.234 0 2.195.351 2.883 1.055.687.703 1.031 1.674 1.031 2.914v1.156h-5.633c.026.677.227 1.206.602 1.586.375.38.901.57 1.578.57.526 0 1.023-.055 1.492-.164a7.487 7.487 0 0 0 1.469-.523v1.843a5.454 5.454 0 0 1-1.336.461c-.474.104-1.052.157-1.734.157zm10.375-9.055c.322 0 .591.023.804.07l-.179 2.235a2.695 2.695 0 0 0-.704-.079c-.76 0-1.354.196-1.781.586-.422.391-.633.938-.633 1.641v4.445h-2.382v-8.734h1.804l.352 1.469H207c.271-.49.635-.883 1.094-1.18a2.708 2.708 0 0 1 1.508-.453zm7.937 8.898l-.461-1.187h-.062c-.401.505-.815.857-1.243 1.054-.421.193-.974.29-1.656.29-.838 0-1.5-.24-1.984-.719-.479-.479-.719-1.162-.719-2.047 0-.927.323-1.609.969-2.047.651-.443 1.63-.687 2.937-.734l1.516-.047v-.383c0-.885-.453-1.328-1.359-1.328-.698 0-1.519.211-2.461.633l-.789-1.61c1.005-.526 2.119-.789 3.343-.789 1.172 0 2.071.255 2.696.766.625.51.937 1.286.937 2.328v5.82h-1.664zm-.703-4.047l-.922.032c-.693.02-1.208.145-1.547.375-.338.229-.508.578-.508 1.047 0 .671.386 1.007 1.157 1.007.552 0 .992-.159 1.32-.476.333-.318.5-.74.5-1.266v-.719zm9.625 4.204c-1.026 0-1.831-.373-2.414-1.118h-.125c.083.73.125 1.151.125 1.266v3.539h-2.383v-12.578h1.938l.336 1.133h.109c.557-.865 1.383-1.297 2.476-1.297 1.032 0 1.839.398 2.422 1.195.584.797.875 1.904.875 3.32 0 .933-.138 1.743-.414 2.43-.271.688-.659 1.211-1.164 1.57-.505.36-1.099.54-1.781.54zm-.703-7.149c-.589 0-1.018.182-1.289.547-.271.359-.412.956-.422 1.789v.258c0 .937.138 1.609.414 2.015.281.407.724.61 1.328.61 1.068 0 1.602-.88 1.602-2.641 0-.859-.133-1.502-.399-1.929-.26-.433-.672-.649-1.234-.649zm4.781-1.742h2.609l1.649 4.914c.141.427.237.932.289 1.516h.047a6.661 6.661 0 0 1 .336-1.516l1.617-4.914h2.555l-3.696 9.851c-.338.912-.823 1.594-1.453 2.047-.625.453-1.357.68-2.195.68a5.5 5.5 0 0 1-1.211-.133v-1.89c.286.067.599.101.937.101.422 0 .789-.13 1.102-.39.318-.256.565-.644.742-1.165l.141-.429-3.469-8.672zM86 207.696l-2.75-8.961h-.07c.099 1.823.148 3.039.148 3.649v5.312h-2.164v-11.422h3.297l2.703 8.735h.047l2.867-8.735h3.297v11.422h-2.258v-5.406c0-.255.003-.549.008-.883.01-.333.047-1.219.11-2.656h-.07l-2.946 8.945H86zm15.617 0l-.461-1.187h-.062c-.401.505-.815.857-1.242 1.054-.422.193-.974.29-1.657.29-.838 0-1.5-.24-1.984-.719-.48-.479-.719-1.162-.719-2.047 0-.927.323-1.609.969-2.047.651-.443 1.63-.687 2.937-.734l1.516-.047v-.383c0-.885-.453-1.328-1.36-1.328-.697 0-1.517.211-2.46.633l-.79-1.61c1.006-.526 2.12-.789 3.344-.789 1.172 0 2.071.255 2.696.766.625.51.937 1.286.937 2.328v5.82h-1.664zm-.703-4.047l-.922.032c-.693.02-1.208.145-1.547.375-.338.229-.507.578-.507 1.047 0 .671.385 1.007 1.156 1.007.552 0 .992-.159 1.32-.476.333-.318.5-.74.5-1.266v-.719zm12.891 4.047h-2.383v-5.101c0-.63-.112-1.102-.336-1.414-.224-.318-.581-.477-1.07-.477-.667 0-1.149.224-1.446.672-.297.443-.445 1.18-.445 2.211v4.109h-2.383v-8.734h1.82l.321 1.117h.133c.265-.422.63-.739 1.093-.953.469-.219 1-.328 1.594-.328 1.016 0 1.787.276 2.313.828.526.547.789 1.339.789 2.375v5.695zm8 0l-.461-1.187h-.063c-.401.505-.815.857-1.242 1.054-.422.193-.974.29-1.656.29-.839 0-1.5-.24-1.985-.719-.479-.479-.718-1.162-.718-2.047 0-.927.323-1.609.968-2.047.651-.443 1.631-.687 2.938-.734l1.516-.047v-.383c0-.885-.454-1.328-1.36-1.328-.698 0-1.518.211-2.461.633l-.789-1.61c1.005-.526 2.12-.789 3.344-.789 1.172 0 2.07.255 2.695.766.625.51.938 1.286.938 2.328v5.82h-1.664zm-.703-4.047l-.922.032c-.693.02-1.209.145-1.547.375-.339.229-.508.578-.508 1.047 0 .671.385 1.007 1.156 1.007.552 0 .992-.159 1.321-.476.333-.318.5-.74.5-1.266v-.719zm12.429-4.687v1.211l-1.367.351c.25.391.375.829.375 1.313 0 .937-.328 1.669-.984 2.195-.651.521-1.558.781-2.719.781l-.43-.023-.351-.039c-.245.187-.367.396-.367.625 0 .344.437.516 1.312.516h1.484c.959 0 1.688.205 2.188.617.505.411.758 1.015.758 1.812 0 1.021-.427 1.813-1.282 2.375-.849.563-2.07.844-3.664.844-1.218 0-2.151-.214-2.796-.641-.641-.421-.961-1.015-.961-1.781 0-.526.164-.966.492-1.32.328-.354.81-.607 1.445-.758a1.605 1.605 0 0 1-.641-.508 1.232 1.232 0 0 1-.273-.758c0-.333.096-.609.289-.828.193-.224.471-.442.836-.656a2.372 2.372 0 0 1-1.094-.953c-.265-.438-.398-.953-.398-1.547 0-.953.31-1.69.929-2.211.62-.521 1.506-.781 2.657-.781.245 0 .534.023.867.07.338.042.555.073.648.094h3.047zm-6.742 9.969c0 .328.156.586.469.773.318.188.76.281 1.328.281.854 0 1.523-.117 2.008-.351.484-.235.726-.555.726-.961 0-.328-.143-.555-.429-.68-.287-.125-.73-.187-1.329-.187h-1.234c-.437 0-.805.101-1.101.304-.292.209-.438.482-.438.821zm.867-7.11c0 .474.107.849.321 1.125.218.276.549.414.992.414.448 0 .776-.138.984-.414.208-.276.313-.651.313-1.125 0-1.052-.433-1.578-1.297-1.578-.875 0-1.313.526-1.313 1.578zm10.938-1.328c-.505 0-.901.162-1.188.485-.286.317-.45.77-.492 1.359h3.344c-.011-.589-.164-1.042-.461-1.359-.297-.323-.698-.485-1.203-.485zm.336 7.36c-1.407 0-2.506-.388-3.297-1.165-.792-.776-1.188-1.875-1.188-3.296 0-1.464.365-2.594 1.094-3.391.734-.802 1.747-1.203 3.039-1.203 1.234 0 2.195.351 2.883 1.055.687.703 1.031 1.674 1.031 2.914v1.156h-5.633c.026.677.227 1.206.602 1.586.375.38.901.57 1.578.57.526 0 1.023-.055 1.492-.164a7.464 7.464 0 0 0 1.469-.523v1.843a5.454 5.454 0 0 1-1.336.461c-.474.104-1.052.157-1.734.157zm13.32-.157h-2.383v-5.101c0-.63-.107-1.102-.32-1.414-.208-.318-.539-.477-.992-.477-.61 0-1.052.224-1.328.672-.276.448-.415 1.185-.415 2.211v4.109h-2.382v-8.734h1.82l.32 1.117h.133a2.399 2.399 0 0 1 1.016-.937c.442-.23.95-.344 1.523-.344 1.307 0 2.193.427 2.656 1.281h.211a2.37 2.37 0 0 1 1.032-.945 3.476 3.476 0 0 1 1.547-.336c.989 0 1.736.255 2.242.765.51.506.765 1.318.765 2.438v5.695h-2.39v-5.101c0-.63-.107-1.102-.321-1.414-.208-.318-.539-.477-.992-.477-.583 0-1.021.208-1.312.625-.287.417-.43 1.078-.43 1.984v4.383zm11.516-7.203c-.506 0-.901.162-1.188.485-.286.317-.45.77-.492 1.359h3.344c-.011-.589-.164-1.042-.461-1.359-.297-.323-.698-.485-1.203-.485zm.336 7.36c-1.407 0-2.506-.388-3.297-1.165-.792-.776-1.188-1.875-1.188-3.296 0-1.464.365-2.594 1.094-3.391.734-.802 1.747-1.203 3.039-1.203 1.234 0 2.195.351 2.883 1.055.687.703 1.031 1.674 1.031 2.914v1.156h-5.633c.026.677.227 1.206.602 1.586.375.38.901.57 1.578.57.526 0 1.023-.055 1.492-.164a7.487 7.487 0 0 0 1.469-.523v1.843a5.454 5.454 0 0 1-1.336.461c-.474.104-1.052.157-1.734.157zm13.562-.157h-2.383v-5.101c0-.63-.112-1.102-.336-1.414-.224-.318-.58-.477-1.07-.477-.667 0-1.148.224-1.445.672-.297.443-.446 1.18-.446 2.211v4.109h-2.382v-8.734h1.82l.32 1.117h.133a2.5 2.5 0 0 1 1.094-.953c.469-.219 1-.328 1.593-.328 1.016 0 1.787.276 2.313.828.526.547.789 1.339.789 2.375v5.695zm6.133-1.742c.417 0 .917-.091 1.5-.273v1.773c-.594.266-1.323.399-2.188.399-.953 0-1.648-.24-2.086-.719-.432-.485-.648-1.209-.648-2.172v-4.211h-1.141v-1.008l1.313-.797.687-1.843h1.524v1.859h2.445v1.789h-2.445v4.211c0 .338.094.588.281.75.193.161.445.242.758.242zm6.82-2.641c0-1.38.201-2.671.602-3.875.406-1.203.989-2.257 1.75-3.164h1.953a11.272 11.272 0 0 0-1.664 3.313 12.399 12.399 0 0 0-.563 3.711c0 1.276.19 2.51.571 3.703a11.3 11.3 0 0 0 1.64 3.227h-1.937a9.21 9.21 0 0 1-1.75-3.102c-.401-1.182-.602-2.453-.602-3.813zm11.055 4.383l-2.75-8.961h-.07c.099 1.823.148 3.039.148 3.649v5.312h-2.164v-11.422h3.297l2.703 8.735h.047l2.867-8.735h3.297v11.422h-2.258v-5.406c0-.255.003-.549.008-.883.01-.333.047-1.219.109-2.656h-.07l-2.945 8.945h-2.219zm14.664 0h-2.422v-9.406h-3.102v-2.016h8.626v2.016h-3.102v9.406zm9.695 0l-2.75-8.961h-.07c.099 1.823.148 3.039.148 3.649v5.312h-2.164v-11.422h3.297l2.703 8.735h.047l2.867-8.735h3.297v11.422h-2.258v-5.406c0-.255.003-.549.008-.883.011-.333.047-1.219.11-2.656h-.071l-2.945 8.945h-2.219zm13.602-4.383c0 1.37-.203 2.646-.61 3.829-.401 1.182-.981 2.211-1.742 3.086h-1.937a11.326 11.326 0 0 0 1.633-3.219c.385-1.193.578-2.43.578-3.711 0-1.271-.188-2.508-.563-3.711a11.272 11.272 0 0 0-1.664-3.313h1.953c.766.912 1.349 1.972 1.75 3.18a12.13 12.13 0 0 1 .602 3.859z" fill="#284875"/><ellipse cx="170" cy="64.696" rx="22" ry="21" fill="#092D74"/><ellipse cx="247" cy="96.696" rx="22" ry="21" fill="#092D74"/><ellipse cx="280" cy="159.696" rx="22" ry="21" fill="#092D74"/><ellipse cx="269" cy="236.696" rx="22" ry="21" fill="#092D74"/><ellipse cx="225" cy="290.696" rx="22" ry="21" fill="#092D74"/><ellipse cx="148" cy="304.696" rx="22" ry="21" fill="#092D74"/><ellipse cx="73" cy="278.696" rx="22" ry="21" fill="#092D74"/><ellipse cx="41" cy="215.696" rx="22" ry="21" fill="#092D74"/><ellipse cx="51" cy="134.696" rx="22" ry="21" fill="#092D74"/><path d="M171.794 71.696h-2.716v-7.435l.026-1.222.044-1.336c-.451.451-.764.747-.94.888l-1.477 1.186-1.309-1.634 4.14-3.296h2.232v12.85zm79.268 30h-8.983v-1.89l3.226-3.26c.955-.979 1.579-1.655 1.872-2.03.293-.381.504-.733.633-1.055a2.69 2.69 0 0 0 .193-1.002c0-.516-.144-.9-.431-1.151-.281-.252-.659-.378-1.134-.378a3.28 3.28 0 0 0-1.45.342 7.482 7.482 0 0 0-1.467.976l-1.477-1.749c.633-.539 1.157-.92 1.573-1.143.416-.222.87-.392 1.362-.51a6.825 6.825 0 0 1 1.653-.184c.803 0 1.512.147 2.127.44.615.292 1.093.703 1.432 1.23.34.527.51 1.13.51 1.81a4.41 4.41 0 0 1-.316 1.67c-.205.516-.528 1.046-.967 1.591-.434.545-1.201 1.322-2.303 2.33l-1.652 1.555v.123h5.599v2.285zm32.499 55.025c0 .802-.244 1.485-.73 2.048-.486.562-1.169.949-2.048 1.16v.052c1.037.129 1.822.446 2.356.95.533.498.799 1.172.799 2.021 0 1.236-.448 2.2-1.344 2.892-.897.685-2.177 1.028-3.841 1.028-1.395 0-2.631-.231-3.709-.694v-2.312a8.362 8.362 0 0 0 1.644.615 6.876 6.876 0 0 0 1.775.238c.896 0 1.558-.153 1.986-.457.428-.305.642-.794.642-1.468 0-.604-.246-1.031-.738-1.283-.493-.252-1.278-.378-2.356-.378h-.976v-2.083h.994c.996 0 1.722-.129 2.179-.387.463-.264.695-.712.695-1.345 0-.972-.61-1.459-1.828-1.459-.422 0-.853.071-1.292.211-.434.141-.917.384-1.451.73l-1.256-1.872c1.171-.844 2.569-1.266 4.192-1.266 1.33 0 2.379.27 3.146.809.774.539 1.161 1.289 1.161 2.25zm-10.209 84.312h-1.547v2.663h-2.655v-2.663h-5.484v-1.889l5.634-8.297h2.505v8.077h1.547v2.109zm-4.202-2.109v-2.18c0-.363.015-.89.044-1.582.03-.691.053-1.093.071-1.204h-.071c-.216.48-.477.949-.782 1.406l-2.355 3.56h3.093zm-44.395 50.563c1.242 0 2.229.349 2.962 1.046.738.697 1.107 1.653 1.107 2.865 0 1.436-.442 2.54-1.327 3.314-.885.773-2.15 1.16-3.797 1.16-1.429 0-2.584-.231-3.463-.694v-2.347a7.381 7.381 0 0 0 1.617.607 7.312 7.312 0 0 0 1.75.228c1.658 0 2.487-.68 2.487-2.039 0-1.295-.859-1.942-2.575-1.942-.311 0-.654.032-1.029.096a7.056 7.056 0 0 0-.914.194l-1.081-.58.484-6.548h6.969v2.302h-4.588l-.237 2.523.308-.062c.357-.082.8-.123 1.327-.123zm-81.764 16.751c0-2.543.536-4.435 1.609-5.677 1.078-1.243 2.689-1.864 4.834-1.864.732 0 1.306.044 1.722.132V301a7.047 7.047 0 0 0-1.547-.176c-.931 0-1.693.141-2.285.422a2.837 2.837 0 0 0-1.318 1.248c-.293.551-.466 1.333-.519 2.347h.115c.58-.996 1.508-1.494 2.786-1.494 1.148 0 2.048.36 2.698 1.081.65.72.976 1.717.976 2.988 0 1.371-.387 2.458-1.161 3.261-.773.797-1.845 1.195-3.216 1.195-.95 0-1.779-.22-2.488-.659-.703-.44-1.248-1.081-1.635-1.925-.38-.844-.571-1.86-.571-3.05zm4.641 3.463c.58 0 1.025-.193 1.336-.58.31-.392.466-.949.466-1.67 0-.627-.147-1.119-.44-1.476-.287-.364-.723-.545-1.309-.545-.551 0-1.023.178-1.415.536-.387.357-.581.773-.581 1.248 0 .697.182 1.286.545 1.766.37.481.835.721 1.398.721zm-78.279-24.005l4.826-10.547h-6.337v-2.285h9.22v1.705l-4.86 11.127h-2.849zM40.509 209.68c1.23 0 2.22.281 2.97.843.756.557 1.134 1.31 1.134 2.259a2.98 2.98 0 0 1-.545 1.758c-.363.51-.949.967-1.758 1.371.962.516 1.65 1.055 2.066 1.617.422.557.633 1.169.633 1.837 0 1.055-.413 1.905-1.24 2.549-.826.639-1.913.958-3.26.958-1.407 0-2.511-.299-3.314-.896-.802-.598-1.204-1.445-1.204-2.54 0-.733.194-1.383.58-1.952.393-.568 1.02-1.069 1.881-1.503-.732-.462-1.26-.958-1.582-1.485a3.256 3.256 0 0 1-.483-1.731c0-.92.38-1.664 1.142-2.233.762-.568 1.755-.852 2.98-.852zm-2.004 9.597c0 .504.176.897.527 1.178.352.281.832.422 1.442.422.674 0 1.177-.144 1.511-.431.334-.293.501-.676.501-1.151 0-.393-.167-.759-.5-1.099-.329-.345-.865-.712-1.609-1.098-1.248.574-1.872 1.3-1.872 2.179zm1.986-7.611c-.463 0-.838.12-1.125.36-.281.235-.422.551-.422.95 0 .351.112.668.334.949.229.275.639.559 1.23.852.575-.269.976-.545 1.205-.826a1.5 1.5 0 0 0 .343-.975c0-.405-.147-.724-.44-.958-.293-.235-.668-.352-1.125-.352zm14.518-77.335c0 2.531-.533 4.421-1.6 5.669-1.066 1.248-2.68 1.872-4.843 1.872-.761 0-1.339-.041-1.731-.123v-2.18a6.357 6.357 0 0 0 1.547.185c.908 0 1.655-.132 2.241-.396a2.853 2.853 0 0 0 1.345-1.256c.31-.575.489-1.363.536-2.365h-.106c-.34.551-.732.938-1.177 1.16-.446.223-1.002.334-1.67.334-1.12 0-2.001-.357-2.646-1.072-.644-.721-.967-1.72-.967-2.997 0-1.377.39-2.464 1.17-3.261.785-.802 1.851-1.204 3.199-1.204.949 0 1.778.223 2.487.668.715.446 1.263 1.093 1.644 1.943.38.843.57 1.851.57 3.023zm-4.65-3.454c-.562 0-1.002.193-1.318.58-.316.387-.475.943-.475 1.67 0 .621.144 1.113.431 1.477.287.363.724.544 1.31.544.55 0 1.022-.178 1.415-.536.392-.363.588-.779.588-1.248 0-.697-.184-1.286-.553-1.766-.363-.481-.83-.721-1.398-.721z" fill="#fff"/></svg>