<svg width="410" height="410" viewBox="0 0 410 410" fill="none" xmlns="http://www.w3.org/2000/svg"><path d="M205 103.503c28.062 0 53.391 11.389 71.796 29.702l73.162-73.162C312.876 22.961 261.58.001 205 .001S97.125 22.961 60.042 60.043l73.163 73.162c18.404-18.313 43.733-29.702 71.795-29.702z" fill="#284875"/><path d="M103.502 205.001c0-28.062 11.389-53.391 29.702-71.796L60.042 60.043C22.96 97.125 0 148.421 0 205.001s22.96 107.875 60.042 144.958l73.162-73.163c-18.313-18.404-29.702-43.824-29.702-71.795z" fill="#EDC247"/><path d="M205 306.499c-28.062 0-53.391-11.389-71.795-29.702l-73.163 73.162C97.125 387.041 148.42 410.001 205 410.001s107.876-22.96 144.958-60.042l-73.162-73.162c-18.405 18.313-43.825 29.702-71.796 29.702z" fill="#43AE71"/><path d="M349.958 60.043l-73.163 73.162c18.405 18.405 29.703 43.734 29.703 71.796 0 28.062-11.389 53.391-29.703 71.795l73.163 73.163C387.04 312.876 410 261.581 410 205.001S387.04 97.125 349.958 60.043z" fill="#812825"/><path d="M276.704 133.205c-18.404-18.404-43.733-29.702-71.795-29.702-28.062 0-53.391 11.389-71.796 29.702-18.404 18.405-29.702 43.733-29.702 71.796 0 28.062 11.389 53.391 29.702 71.795 18.405 18.405 43.734 29.702 71.796 29.702 28.062 0 53.391-11.388 71.795-29.702 18.405-18.404 29.703-43.733 29.703-71.795 0-28.063-11.298-53.391-29.703-71.796z" fill="#fff"/><path d="M162.695 195.29c-2.734 0-4.851 1.031-6.351 3.094-1.5 2.047-2.25 4.906-2.25 8.578 0 7.641 2.867 11.461 8.601 11.461 2.407 0 5.321-.602 8.743-1.805v6.094c-2.813 1.172-5.954 1.758-9.422 1.758-4.985 0-8.797-1.508-11.438-4.524-2.64-3.031-3.961-7.375-3.961-13.031 0-3.562.649-6.68 1.945-9.352 1.297-2.687 3.157-4.742 5.579-6.164 2.437-1.437 5.289-2.156 8.554-2.156 3.328 0 6.672.805 10.032 2.414l-2.344 5.906a38.907 38.907 0 0 0-3.867-1.593c-1.297-.453-2.571-.68-3.821-.68zm37.032 28.711l-2.485-8.156H184.75l-2.484 8.156h-7.828l12.093-34.406h8.883l12.141 34.406h-7.828zm-4.219-14.25a7144.085 7144.085 0 0 1-3.891-12.539 39.53 39.53 0 0 1-.609-2.297c-.516 2-1.992 6.945-4.43 14.836h8.93zm23.648-4.805h2.344c2.297 0 3.992-.383 5.086-1.148 1.094-.766 1.641-1.969 1.641-3.61 0-1.625-.563-2.781-1.688-3.468-1.109-.688-2.836-1.032-5.18-1.032h-2.203v9.258zm0 5.907v13.148h-7.265v-34.266h9.984c4.656 0 8.102.852 10.336 2.555 2.234 1.688 3.351 4.258 3.351 7.711 0 2.016-.554 3.812-1.664 5.391-1.109 1.562-2.679 2.789-4.71 3.679 5.156 7.703 8.515 12.68 10.078 14.93h-8.063l-8.18-13.148h-3.867zm44.156 13.148h-19.734v-34.266h19.734v5.953h-12.468v7.524h11.601v5.953h-11.601v8.836h12.468v6z" fill="#284875"/><path d="M140.005 94.853c.884 1.525 1.136 2.922.758 4.32-.379 1.397-1.262 2.54-2.65 3.557-1.514 1.143-3.155 1.397-4.921 1.016-1.766-.508-3.281-1.652-4.542-3.43l-.884-1.27c-.883-1.27-1.387-2.414-1.64-3.684-.252-1.27-.126-2.414.379-3.43.504-1.017 1.135-2.033 2.271-2.795 1.388-1.017 2.776-1.398 4.164-1.27 1.388.126 2.649.889 3.785 2.159l-1.767 1.27c-.883-.889-1.766-1.524-2.649-1.651s-1.767.127-2.65.762c-1.135.762-1.64 1.779-1.766 3.049 0 1.27.504 2.668 1.514 4.192l.883 1.27c1.136 1.652 2.271 2.541 3.533 2.922 1.135.381 2.271.254 3.407-.508 1.009-.635 1.514-1.397 1.766-2.286.252-.763 0-1.779-.631-3.05l1.64-1.143zm16.151-11.815l-9.842 5.336-.757-1.525 9.842-5.335.757 1.524zm21.071-6.097c.379 1.651.253 3.176-.504 4.446-.631 1.27-1.893 2.16-3.533 2.795-1.767.635-3.407.508-5.047-.381-1.514-.89-2.65-2.414-3.407-4.573l-.505-1.525c-.504-1.397-.631-2.795-.504-4.065.126-1.27.504-2.287 1.261-3.303.757-.89 1.641-1.524 2.902-2.032 1.641-.636 3.029-.636 4.417 0 1.261.508 2.271 1.651 3.028 3.175l-2.019.763c-.631-1.144-1.262-1.906-2.019-2.287-.757-.381-1.64-.381-2.776 0-1.261.508-2.145 1.27-2.523 2.54-.379 1.271-.253 2.668.378 4.447l.505 1.524c.631 1.652 1.388 2.922 2.397 3.557 1.01.636 2.145.89 3.407.381 1.136-.38 1.893-1.016 2.271-1.65.379-.636.505-1.78.253-3.05l2.018-.762zm1.893-1.525c-.252-1.143-.252-2.286 0-3.302.252-1.017.757-1.906 1.388-2.541.631-.635 1.514-1.143 2.523-1.398 1.641-.38 3.029-.127 4.29.763 1.262.889 2.019 2.286 2.524 4.065v.127c.252 1.143.252 2.286 0 3.176-.252.889-.631 1.905-1.388 2.54-.631.636-1.514 1.144-2.65 1.398-1.64.38-3.028.127-4.29-.762-1.261-.89-2.019-2.287-2.523-4.066h.126zm2.145-.254c.252 1.27.883 2.287 1.64 2.922.757.635 1.64.89 2.65.635 1.009-.254 1.766-.762 2.145-1.778.378-.89.505-2.16.126-3.557-.252-1.27-.883-2.287-1.64-2.922-.757-.635-1.641-.89-2.65-.635-1.009.254-1.64.762-2.145 1.778-.505.89-.505 2.033-.126 3.557zm12.87-9.019l.126 1.27c.757-1.143 1.893-1.778 3.407-1.905 1.64-.127 2.902.38 3.533 1.651a5.39 5.39 0 0 1 1.388-1.524c.504-.381 1.388-.635 2.271-.762 2.65-.255 4.038 1.016 4.29 3.81l.631 8.004-2.019.127-.631-8.003c-.126-.89-.378-1.525-.757-1.906-.378-.381-1.136-.508-2.019-.508-.757.127-1.388.381-1.892.89-.505.507-.757 1.143-.757 1.905l.63 8.003-1.766.508-.631-7.876c-.126-1.778-1.009-2.54-2.776-2.414-1.388.127-2.271.763-2.649 1.906l.757 8.765-2.019.127-1.136-11.941 2.019-.127zm28.768 5.844c-.127 1.778-.631 3.303-1.514 4.319-.884 1.016-2.019 1.525-3.533 1.525-1.514-.128-2.524-.636-3.281-1.652l-.378 5.844-2.019-.127 1.009-16.642 1.893.127v1.397c.883-1.016 2.145-1.397 3.533-1.397 1.388.127 2.523.762 3.28 1.906.757 1.143 1.136 2.667 1.01 4.7zm-2.019-.381c.126-1.398-.126-2.414-.631-3.303-.505-.762-1.262-1.27-2.271-1.27-1.262-.128-2.145.38-2.902 1.524l-.379 5.716c.505 1.144 1.388 1.779 2.65 1.779 1.009 0 1.766-.254 2.397-1.016.631-.763 1.136-1.906 1.136-3.43zm11.229 7.876c-.126-.254-.126-.635 0-1.27-1.135.762-2.271 1.143-3.659.889-1.135-.254-2.018-.762-2.649-1.525-.631-.762-.884-1.651-.631-2.667.252-1.27.883-2.16 1.892-2.668 1.01-.508 2.398-.635 4.164-.381l2.019.381v-1.016c.126-.762 0-1.27-.378-1.779-.379-.508-.884-.762-1.767-1.016-.757-.127-1.388 0-1.893.254-.504.254-.883.635-1.009 1.143l-2.019-.38a3.045 3.045 0 0 1 .883-1.652c.505-.508 1.136-.763 1.893-1.017a3.865 3.865 0 0 1 2.397 0c1.388.254 2.398.763 3.029 1.652.631.762.883 1.778.757 3.049l-1.01 5.462c-.252 1.144-.252 2.033 0 2.668v.127l-2.019-.254zm-3.154-2.16c.631.127 1.262 0 1.893-.127a4.54 4.54 0 0 0 1.514-1.016l.378-2.414-1.64-.254c-2.523-.38-3.785.127-4.038 1.525-.126.635 0 1.143.379 1.651s.883.508 1.514.635zm15.142 1.906c.126-.509.126-1.017-.253-1.398-.378-.381-.883-.89-1.892-1.397-.884-.508-1.641-1.017-2.145-1.525-.505-.508-.884-1.016-1.01-1.397-.126-.508-.126-1.016 0-1.652.253-.889.883-1.651 1.893-2.032 1.009-.381 2.145-.508 3.407-.127 1.261.38 2.271 1.016 2.902 1.905.631.89.757 1.906.504 2.922l-2.018-.635c.126-.508 0-1.016-.253-1.651-.252-.636-.883-.89-1.514-1.144-.757-.254-1.262-.254-1.766 0-.505.254-1.01.89-1.136 1.398-.126.508 0 .889.252 1.27.253.381.884.762 1.893 1.27a21.62 21.62 0 0 1 2.145 1.398c.505.508.883 1.016 1.009 1.524a3.627 3.627 0 0 1 0 1.652c-.252 1.016-.883 1.778-1.892 2.16-1.01.38-2.145.38-3.533 0-.883-.255-1.64-.636-2.271-1.144-.631-.508-1.01-1.143-1.262-1.906-.252-.762-.252-1.397 0-2.032l2.019.508c-.126.635 0 1.27.378 1.779.379.508 1.01.889 1.767 1.143.757.254 1.388.254 1.892.127.379-.127.757-.508.884-1.016zm10.977 4.064c.252-.508.126-1.016-.126-1.397-.253-.381-.884-1.016-1.767-1.524-.883-.636-1.514-1.144-2.019-1.652-.504-.508-.757-1.016-.883-1.524s0-1.017.126-1.652c.379-.89 1.01-1.524 2.019-1.905 1.009-.382 2.145-.255 3.281.254 1.261.508 2.145 1.27 2.649 2.16.505 1.016.631 1.905.253 3.048l-1.893-.762c.252-.508.126-1.016-.126-1.651-.253-.636-.757-1.017-1.514-1.27-.757-.255-1.262-.382-1.767-.255a1.374 1.374 0 0 0-1.009 1.016c-.126.508-.126.89.126 1.27.252.382.883.89 1.766 1.398.884.635 1.515 1.143 2.019 1.651.505.509.757 1.017.884 1.652.126.635.126 1.143-.127 1.651-.378 1.017-1.135 1.652-2.145 1.906-1.009.254-2.145.127-3.406-.381-.884-.381-1.641-.89-2.145-1.398-.505-.635-.884-1.27-1.136-2.032-.126-.762-.126-1.397.126-2.033l1.893.763c-.252.635-.126 1.27.126 1.778.379.508.883 1.016 1.64 1.27.757.254 1.388.382 1.893.254.505-.127 1.009-.127 1.262-.635zm4.921 5.844l-1.893-.889 5.173-10.925 1.893.89-5.173 10.924zm4.416-14.863c.126-.254.378-.508.631-.635.252-.127.63-.127 1.009.127.379.127.631.381.631.762 0 .382 0 .636-.126.89a1.527 1.527 0 0 1-.631.635c-.253.127-.631.127-1.01-.127-.378-.127-.63-.381-.63-.635 0-.382 0-.636.126-1.017zm.883 10.417c.631-1.017 1.262-1.906 2.145-2.414.883-.635 1.766-.89 2.776-1.016 1.009 0 1.892.254 2.776.762 1.388.762 2.271 1.905 2.649 3.43.379 1.524 0 3.049-.883 4.7l-.126.127c-.631 1.017-1.262 1.779-2.145 2.414-.883.635-1.767.89-2.776 1.016-1.009.127-1.893-.254-2.902-.762-1.388-.762-2.271-1.906-2.65-3.43-.378-1.524.126-3.049 1.136-4.827zm1.64 1.27c-.631 1.143-.883 2.287-.757 3.303s.631 1.778 1.514 2.287c.883.508 1.893.508 2.776.127.883-.381 1.767-1.27 2.524-2.541.63-1.143.883-2.287.757-3.303-.127-1.016-.631-1.778-1.641-2.287-.883-.508-1.766-.508-2.776-.127-.883.382-1.64 1.27-2.397 2.541zm15.141 1.779l-.757 1.27c1.388-.508 2.776-.254 3.912.635 2.145 1.398 2.397 3.303.757 5.717l-4.416 6.606-1.641-1.143 4.416-6.606c.505-.762.631-1.398.631-1.906-.126-.508-.504-1.016-1.135-1.524-.505-.381-1.136-.508-1.767-.508s-1.261.127-1.766.508l-4.795 7.114-1.64-1.144 6.687-10.035 1.514 1.016zM65.815 136.21l-4-7.178-5.926 3.222 4.592 8.204-1.777 1.025-5.778-10.401L69.666 122l5.778 10.401-1.777 1.025-4.593-8.203-5.333 2.93 3.852 7.031-1.778 1.026zm9.333 22.413l-4.593-12.013 1.778-.732 4.593 12.012-1.778.733zm5.482 21.534L79 172.246l-6.519 1.319 1.926 9.229-2.074.439-2.37-11.719 18.667-3.662L91 179.424l-2.074.44L87 170.781l-5.926 1.172 1.63 7.911-2.074.293zm1.333 9.083l5.481 2.636.297 2.784-7.408-3.956-6.666 5.274-.297-2.783 4.89-3.662-5.482-2.784-.297-2.783 7.556 4.102 6.518-4.981.297 2.783-4.89 3.37zm-6.667 14.209c0 .878.296 1.611.74 2.197.445.586 1.186 1.025 1.927 1.025v2.198c-.74 0-1.63-.293-2.222-.879-.741-.586-1.334-1.172-1.778-2.051-.445-.879-.593-1.758-.593-2.637 0-1.904.741-3.369 1.926-4.541 1.333-1.172 3.111-1.612 5.333-1.612h.445c1.333 0 2.519.293 3.704.733 1.037.439 1.926 1.172 2.518 2.197.593.879.89 2.051.89 3.37 0 1.611-.445 2.929-1.482 3.808-.89 1.026-2.223 1.612-3.704 1.612v-2.198c.889 0 1.63-.439 2.222-1.025.593-.586.889-1.319.889-2.197 0-1.172-.445-2.198-1.333-2.784-1.037-.732-2.223-1.025-4-1.025h-.445c-1.63 0-2.815.293-3.704 1.025-.888.733-1.333 1.465-1.333 2.784zm-2.963 13.331c.296-1.905 1.037-3.37 2.37-4.395 1.334-1.025 3.112-1.465 5.186-1.172h.444c1.333.147 2.667.586 3.556 1.172 1.037.586 1.777 1.465 2.37 2.49.445 1.026.74 2.051.593 3.223-.148 1.758-1.037 3.077-2.37 3.955-1.334.879-3.112 1.172-5.334.879l-1.037-.146 1.185-9.376a5.797 5.797 0 0 0-3.556.733c-.888.732-1.481 1.611-1.63 2.783-.147.879 0 1.612.297 2.198a6.5 6.5 0 0 0 1.185 1.611l-1.333 1.318c-1.481-1.025-2.222-2.929-1.926-5.273zm12.593 1.172c.148-1.026-.148-1.758-.741-2.491-.593-.732-1.63-1.172-2.815-1.465l-.889 6.886h.148c1.186.146 2.223-.147 2.963-.586.741-.586 1.186-1.319 1.334-2.344zm-14.074 9.229l.444-2.344L91 228.646l-.444 2.344-19.704-3.809zm-1.333 6.006l.592-2.344 19.408 4.834-.593 2.344-19.407-4.834zm-2.964 8.789c.593-1.758 1.63-3.077 3.26-3.809 1.63-.733 3.407-.733 5.333-.147l.444.147c1.334.439 2.37 1.025 3.26 1.904.888.879 1.481 1.758 1.777 2.93.297 1.025.297 2.197-.148 3.223-.592 1.758-1.63 2.93-3.11 3.516-1.482.586-3.26.586-5.334-.147l-.889-.293 2.963-8.936a4.894 4.894 0 0 0-3.556.147 3.636 3.636 0 0 0-2.074 2.344c-.296.732-.296 1.464-.148 2.197.148.732.445 1.318.889 1.904l-1.481 1.026c-1.63-1.905-1.926-3.809-1.186-6.006zm12.148 3.662c.297-.879.297-1.758-.296-2.637-.444-.879-1.333-1.465-2.518-2.051l-2.222 6.592h.148c1.185.293 2.222.293 2.963 0 .74-.293 1.63-1.025 1.925-1.904zm-2.518 11.427l-1.63-.586c.741 1.465.89 3.076.149 4.688-1.185 2.636-3.408 3.369-6.37 2.05l-8.593-3.662 1.037-2.197 8.593 3.662c.888.44 1.777.44 2.37.293.593-.146 1.185-.732 1.481-1.611.297-.733.445-1.465.297-2.051-.148-.733-.445-1.319-.89-1.905l-9.184-3.955.74-2.344 12.89 5.567-.89 2.051zm-19.111 10.987c-.444.732-.593 1.465-.444 2.344.148.732.592 1.464 1.185 1.904l-1.037 1.904c-.741-.439-1.186-1.025-1.63-1.758-.444-.732-.593-1.611-.593-2.636 0-.879.297-1.905.741-2.637.889-1.612 2.222-2.637 3.852-3.077 1.63-.439 3.407 0 5.481 1.026l.297.146c1.185.586 2.222 1.465 2.815 2.344.74.879 1.037 1.905 1.185 3.077 0 1.171-.148 2.197-.89 3.369-.74 1.318-1.777 2.344-3.11 2.783-1.334.44-2.667.293-4-.293l1.037-1.904c.889.439 1.63.439 2.518.146.741-.293 1.482-.732 1.926-1.611.593-1.026.593-2.051.148-3.076-.444-1.026-1.333-1.905-2.814-2.637l-.297-.44c-1.481-.732-2.666-1.025-3.703-.879-1.037.147-2.075.733-2.667 1.905zm-8.889 10.693c1.037-1.611 2.37-2.49 4.148-2.783 1.778-.293 3.407.146 5.185 1.318l.297.293c1.185.733 2.074 1.612 2.666 2.637.593 1.026.89 2.051.89 3.223 0 1.172-.297 2.197-.89 3.076-1.037 1.465-2.222 2.344-3.852 2.491-1.63.146-3.259-.293-5.185-1.612l-.889-.586 5.185-7.91c-1.185-.733-2.37-1.026-3.407-.879-1.185.146-2.074.732-2.667 1.758-.444.732-.74 1.465-.74 2.051 0 .732 0 1.318.296 2.05l-1.778.586c-.74-1.904-.592-3.808.74-5.713zm10.667 6.592c.592-.732.74-1.611.444-2.636-.296-1.026-.889-1.758-1.778-2.637l-3.852 5.859.149.147c1.037.586 2.074.879 2.963.732.888-.146 1.63-.586 2.074-1.465zm161.05 76.676a10.003 10.003 0 0 0-7.19-3.005c-2.249-.001-4.397.74-6.195 2.082-1.786-1.378-3.891-2.085-6.175-2.086a10.15 10.15 0 0 0-7.219 2.999 10.193 10.193 0 0 0-3.021 7.24 10.172 10.172 0 0 0 2.884 7.171l11.367 11.482c.525.53 1.226.813 1.999.814.773 0 1.443-.282 2.007-.812l11.44-11.404.035-.035c1.907-1.907 2.938-4.485 2.951-7.169.048-2.79-.994-5.369-2.883-7.277zm-14.243 24.612a1.015 1.015 0 0 1-.313-.741 1 1 0 0 1 .214-.636l.106-.106 5.614-5.614a.853.853 0 0 0 .249-.635 1.01 1.01 0 0 0-.243-.636c-.315-.318-.912-.318-1.23-.001l-5.649 5.649c-.389.389-1.091.389-1.476 0a1.015 1.015 0 0 1-.313-.742c.001-.282.108-.565.32-.742l5.649-5.649a.853.853 0 0 0 .249-.635 1.015 1.015 0 0 0-.243-.636c-.315-.318-.912-.318-1.23-.001l-5.649 5.65c-.389.388-1.091.388-1.476-.001a1.07 1.07 0 0 1 .007-1.519l5.649-5.649a.853.853 0 0 0 .249-.635 1.01 1.01 0 0 0-.243-.636c-.315-.318-.912-.318-1.23-.001l-5.649 5.649c-.388.389-1.091.388-1.476 0l-.035-.036a1.092 1.092 0 0 1 .007-1.483l3.849-3.848c1.054.035 2.04-.388 2.852-1.2l2.436-2.436c1.015.848 2.102 1.378 3.156 1.52 1.404.177 2.742-.282 3.801-1.377.354-.353.356-.918.006-1.236-.315-.318-.912-.318-1.23 0-.706.706-1.48.988-2.323.882-.878-.106-1.86-.672-2.769-1.626-.315-.318-.912-.318-1.23 0l-3.036 3.036c-.459.459-.988.706-1.585.706h-.176c-.035 0-.105-.035-.175-.035-.457-.071-.878-.283-1.157-.566-.28-.283-.21-.353-.174-.389.953-.988 6.956-6.99 6.991-7.026a8.363 8.363 0 0 1 5.95-2.47 8.29 8.29 0 0 1 5.928 2.475 8.371 8.371 0 0 1 2.432 5.97 8.449 8.449 0 0 1-2.488 5.968l-11.405 11.439c-.388.388-1.091.388-1.511-.001zm-.448-24.299l-6.709 6.708c-.812.812-.747 1.977.163 2.896.209.212.49.424.77.565l-3.142 3.143c-.248.247-.46.565-.602.882l-1.294-1.272-.035-.035a8.371 8.371 0 0 1-2.432-5.97 8.445 8.445 0 0 1 2.488-5.968 8.359 8.359 0 0 1 5.95-2.47l.002-.353-.002.353c1.758-.035 3.407.496 4.843 1.521zm9.35-323.518a.86.86 0 0 1-.719-1.333l.16-.24c.217-.326.546-.817.894-1.39.376-.62.891-1.534 1.203-2.361.187-.49.298-.964.295-1.266-.001-.228-.05-.323-.079-.36l-.004-.003c-.032-.038-.087-.099-.348-.149a.862.862 0 0 1 .292-1.697c.599.098 1.104.379 1.42.793.294.38.442.856.441 1.416-.001.425-.079.873-.245 1.409-.134.428-.318.883-.561 1.391a22.761 22.761 0 0 1-1.394 2.443 43.4 43.4 0 0 1-.485.734l-.149.225a.858.858 0 0 1-.721.388z" fill="#fff"/><path d="M217.868 45.724h-8.588a.86.86 0 0 1-.856-.766c-.03-.275-.036-.635-.037-1.09 0-.807.032-1.907.076-2.673.016-.266.029-.429.045-.56v-.002c.055-.45.19-1 .411-1.682.212-.65.493-1.374.814-2.097.523-1.175 1.383-2.884 2.513-4.352.76-.978 1.455-1.626 2.188-2.042.439-.247.88-.39 1.31-.427-.459-1.631-.726-3.392-.73-4.833 0-.57.041-1.067.124-1.52.087-.47.275-.966.544-1.436.331-.572.713-.994 1.169-1.29a2.32 2.32 0 0 1 1.252-.384h.006c.188 0 .378.024.565.073l.002.001c.366.1.675.3 1.003.645.245.263.468.58.704 1 .398.711.772 1.617 1.142 2.77a36.048 36.048 0 0 1 1.418 6.777l.005.088a.859.859 0 0 1-.772.857.858.858 0 0 1-.946-.766c-.277-2.677-1.052-5.93-1.882-7.909-.277-.666-.582-1.226-.838-1.537a1.016 1.016 0 0 0-.275-.26h-.001a.514.514 0 0 0-.127-.017.6.6 0 0 0-.325.11c-.136.087-.283.23-.415.406-.27.35-.483.875-.534 1.18l-.001.003a6.806 6.806 0 0 0-.095 1.209c-.007 1.907.572 4.379 1.121 5.736a.866.866 0 0 1-.304 1.023.857.857 0 0 1-1.066-.058c-.025-.023-.124-.1-.368-.14l-.009-.002a.917.917 0 0 0-.156-.013c-.301 0-.711.189-1.123.52-.46.364-.967.923-1.468 1.619-.89 1.231-1.809 2.962-2.459 4.632-.363.92-.631 1.832-.687 2.322v.004a7.918 7.918 0 0 0-.035.453 52.074 52.074 0 0 0-.074 2.572v.134h6.932a9.01 9.01 0 0 1 .507-2.467c.35-.96.844-1.702 1.237-2.241a.862.862 0 1 1 1.393 1.011c-.363.5-.737 1.067-1.013 1.822-.289.791-.426 1.663-.436 2.742a.863.863 0 0 1-.861.855zm3.887-8.692a.861.861 0 0 1-.805-1.164v-.001a.866.866 0 0 1 1.109-.502.862.862 0 0 1-.304 1.667z" fill="#fff"/><path d="M219.614 50.891h-11.195a.867.867 0 0 1-.609-.252.868.868 0 0 1-.252-.609v-5.167c0-.226.092-.449.252-.609a.867.867 0 0 1 .609-.252h11.195a.866.866 0 0 1 .861.861v5.167a.865.865 0 0 1-.861.861zM209.28 49.17h9.473v-3.445h-9.473v3.445z" fill="#fff"/><path d="M217.03 48.307a.869.869 0 0 1-.609-.252.868.868 0 0 1-.252-.609.87.87 0 0 1 .252-.609.87.87 0 0 1 .609-.252c.227 0 .449.092.609.252a.87.87 0 0 1 .252.61.868.868 0 0 1-.252.608.867.867 0 0 1-.609.252zm-21.642-9.499h-.001a.86.86 0 0 1-.721-.388 11.833 11.833 0 0 0-.15-.226 38.156 38.156 0 0 1-.936-1.457c-.61-1.007-1.049-1.872-1.341-2.643-.279-.745-.404-1.323-.407-1.876-.002-.56.147-1.036.441-1.416.317-.414.821-.696 1.42-.793h.002a.858.858 0 0 1 .993.703.861.861 0 0 1-.703.994c-.261.05-.316.112-.349.149l-.002.003c-.03.037-.079.133-.08.36-.001.23.058.55.167.895.107.343.265.734.47 1.16.316.66.75 1.418 1.289 2.254.181.28.339.518.467.708l.159.24a.86.86 0 0 1-.718 1.333z" fill="#fff"/><path d="M200.668 45.724h-8.588a.863.863 0 0 1-.861-.855c-.01-1.08-.148-1.95-.437-2.743-.275-.755-.65-1.321-1.013-1.822a.862.862 0 0 1 1.394-1.011c.392.539.887 1.281 1.237 2.242.273.746.439 1.553.507 2.467h6.932v-.133c0-.862-.038-1.969-.074-2.573a8.213 8.213 0 0 0-.035-.453v-.005c-.037-.311-.163-.818-.339-1.353a20.592 20.592 0 0 0-.751-1.932c-.672-1.518-1.511-2.975-2.303-3.998-.569-.742-1.176-1.322-1.666-1.593-.256-.143-.488-.216-.689-.216h-.002a.78.78 0 0 0-.143.012l-.009.002c-.244.041-.343.118-.368.14a.863.863 0 0 1-1.066.06.866.866 0 0 1-.304-1.024c.549-1.358 1.128-3.83 1.121-5.736a6.8 6.8 0 0 0-.095-1.21l-.001-.003a3.003 3.003 0 0 0-.342-.886c-.173-.305-.405-.573-.607-.698a.596.596 0 0 0-.325-.111.514.514 0 0 0-.127.017h-.001a.191.191 0 0 0-.034.02.91.91 0 0 0-.153.138 3.556 3.556 0 0 0-.46.664c-.332.591-.679 1.44-1.003 2.453-.616 1.921-1.131 4.386-1.345 6.431a.858.858 0 0 1-.946.766.858.858 0 0 1-.767-.946c.149-1.4.426-2.989.781-4.475.383-1.603.839-3.035 1.32-4.14.394-.891.752-1.486 1.163-1.93.328-.347.637-.546 1.003-.646h.002a2.18 2.18 0 0 1 .564-.074h.007c.545 0 .982.209 1.252.383.316.205.597.472.859.819.426.572.729 1.25.854 1.908.082.451.124.948.124 1.52-.005 1.44-.271 3.202-.73 4.834.655.056 1.304.346 1.984.884.597.475 1.183 1.116 1.792 1.959a20.358 20.358 0 0 1 1.509 2.475c.427.815.827 1.692 1.159 2.538.439 1.132.705 2.054.791 2.738v.002c.016.131.029.295.046.565a51.018 51.018 0 0 1 .076 2.674c-.001.453-.008.811-.037 1.088a.86.86 0 0 1-.856.767zm-12.475-8.692a.862.862 0 1 1 .303-.055.873.873 0 0 1-.303.055z" fill="#fff"/><path d="M201.529 50.891h-11.195a.87.87 0 0 1-.609-.252.868.868 0 0 1-.252-.609v-5.167c0-.226.092-.449.252-.609a.87.87 0 0 1 .609-.252h11.195c.227 0 .449.092.609.252a.87.87 0 0 1 .252.61v5.166a.868.868 0 0 1-.252.609.867.867 0 0 1-.609.252zm-10.334-1.722h9.473v-3.445h-9.473v3.445z" fill="#fff"/><path d="M192.918 48.307a.867.867 0 0 1-.609-.252.868.868 0 0 1-.252-.609.87.87 0 0 1 .252-.609.867.867 0 0 1 .609-.252.87.87 0 0 1 .609.252.87.87 0 0 1 .252.61.868.868 0 0 1-.252.608.87.87 0 0 1-.609.252zm12.596-20.696h-.001a.87.87 0 0 1-.731-.405c-.526-.846-1.26-1.735-2.036-2.674l-.206-.25c-.896-1.093-1.683-2.084-2.229-3.137-.43-.835-.639-1.594-.64-2.323a5.798 5.798 0 0 1 1.705-4.117A5.804 5.804 0 0 1 205.493 13a5.806 5.806 0 0 1 4.113 1.706 5.79 5.79 0 0 1 1.704 4.116c-.002.729-.204 1.463-.637 2.31-.322.63-.754 1.285-1.398 2.126-.356.464-.734.93-1.1 1.379-.737.907-1.433 1.762-1.931 2.568a.867.867 0 0 1-.73.406zm-.021-12.889a4.077 4.077 0 0 0-2.899 1.202 4.073 4.073 0 0 0-1.201 2.898c-.002.44.149.955.449 1.534.265.517.67 1.121 1.236 1.848.327.421.673.84 1.039 1.283.468.566.951 1.152 1.393 1.746a47.41 47.41 0 0 1 1.302-1.65l.31-.38c.906-1.116 1.597-2.029 2.018-2.856.299-.58.45-1.094.448-1.525a4.077 4.077 0 0 0-1.201-2.9 4.072 4.072 0 0 0-2.894-1.2z" fill="#fff"/><path d="M202.299 31.757v-.004.004a.862.862 0 0 1-.683-1.385 59.11 59.11 0 0 1 1.199-1.49c.749-.909 1.456-1.767 1.968-2.589a.866.866 0 0 1 .73-.404h.001c.294 0 .574.155.73.406.491.794 1.179 1.64 1.907 2.535.396.486.805.989 1.187 1.492a.862.862 0 0 1-1.372 1.041 47.273 47.273 0 0 0-1.126-1.415c-.446-.548-.908-1.113-1.329-1.683-.442.593-.924 1.177-1.39 1.742-.404.489-.784.95-1.138 1.414a.856.856 0 0 1-.684.336zM20.709 202.5a13.023 13.023 0 1 0 13.022-13.022A13.038 13.038 0 0 0 20.709 202.5zm24.06 0a11.039 11.039 0 1 1-11.038-11.039A11.052 11.052 0 0 1 44.77 202.5zm-7.659-16.592c-.931-.894-1.987-1.908-3.38-1.908-1.392 0-2.447 1.014-3.379 1.908a5.442 5.442 0 0 1-1.608 1.241 5.622 5.622 0 0 1-2.128-.047c-1.255-.167-2.677-.357-3.76.431-1.093.796-1.352 2.215-1.579 3.467a5.587 5.587 0 0 1-.6 2.015 5.55 5.55 0 0 1-1.71 1.172c-1.13.605-2.411 1.292-2.834 2.594-.407 1.255.207 2.537.75 3.667.367.632.609 1.329.712 2.052a5.701 5.701 0 0 1-.713 2.052c-.542 1.13-1.156 2.413-.749 3.666.423 1.302 1.704 1.989 2.833 2.595a5.52 5.52 0 0 1 1.71 1.172c.326.627.53 1.311.6 2.014.228 1.253.487 2.672 1.58 3.468 1.083.788 2.505.598 3.76.431a5.622 5.622 0 0 1 2.128-.047 5.44 5.44 0 0 1 1.608 1.241c.931.894 1.987 1.908 3.38 1.908 1.392 0 2.448-1.014 3.38-1.908a5.44 5.44 0 0 1 1.608-1.241 5.622 5.622 0 0 1 2.127.047c1.256.167 2.678.357 3.761-.431 1.093-.796 1.351-2.215 1.578-3.467a5.59 5.59 0 0 1 .601-2.015 5.538 5.538 0 0 1 1.71-1.172c1.13-.606 2.41-1.293 2.834-2.595.407-1.253-.207-2.535-.75-3.666a5.701 5.701 0 0 1-.713-2.052c.104-.723.346-1.42.713-2.052a6.81 6.81 0 0 0 .882-2.811 2.75 2.75 0 0 0-.132-.855c-.423-1.303-1.704-1.99-2.834-2.595a5.536 5.536 0 0 1-1.71-1.172 5.571 5.571 0 0 1-.6-2.014c-.228-1.253-.486-2.672-1.579-3.468-1.083-.788-2.506-.598-3.761-.431-.7.151-1.422.167-2.127.047a5.444 5.444 0 0 1-1.609-1.241zm-1.373 1.431a6.637 6.637 0 0 0 2.37 1.697 6.895 6.895 0 0 0 3.002.032c.928-.124 1.89-.252 2.33.069.452.328.627 1.289.795 2.219a6.791 6.791 0 0 0 .949 2.826 6.727 6.727 0 0 0 2.376 1.752c.84.451 1.708.916 1.884 1.46.165.498-.251 1.361-.651 2.197a6.951 6.951 0 0 0-.908 2.908 6.948 6.948 0 0 0 .908 2.909c.4.834.811 1.697.651 2.197-.176.544-1.044 1.01-1.884 1.46a6.727 6.727 0 0 0-2.376 1.752 6.8 6.8 0 0 0-.949 2.827c-.169.929-.343 1.891-.794 2.219-.441.32-1.402.192-2.331.068a6.85 6.85 0 0 0-3.002.033 6.636 6.636 0 0 0-2.37 1.696c-.694.668-1.412 1.357-2.006 1.357-.595 0-1.313-.689-2.007-1.356a6.64 6.64 0 0 0-2.369-1.697 6.864 6.864 0 0 0-3.002-.032c-.93.124-1.89.252-2.331-.069-.451-.328-.626-1.289-.795-2.219a6.793 6.793 0 0 0-.948-2.826 6.728 6.728 0 0 0-2.376-1.753c-.84-.45-1.708-.915-1.885-1.46-.164-.498.252-1.362.652-2.196.514-.89.824-1.884.907-2.909a6.945 6.945 0 0 0-.907-2.908c-.4-.836-.81-1.698-.652-2.197.177-.544 1.045-1.009 1.885-1.46a6.726 6.726 0 0 0 2.376-1.752 6.8 6.8 0 0 0 .948-2.827c.17-.93.344-1.891.795-2.219.44-.321 1.401-.192 2.331-.068a6.88 6.88 0 0 0 3.002-.033 6.636 6.636 0 0 0 2.37-1.696c.693-.666 1.411-1.356 2.006-1.356.594 0 1.312.689 2.006 1.355zm-4.971 8.202l-.657 4.16-3.8 1.816a.99.99 0 0 0-.563.882 1.055 1.055 0 0 0 .542.896l3.752 1.911.554 4.174a.992.992 0 0 0 1.684.571l2.977-2.979 4.142.763a.996.996 0 0 0 1.167-.891.994.994 0 0 0-.105-.535l-1.913-3.751 2.006-3.702a.992.992 0 0 0-1.027-1.452l-4.16.659-2.901-3.051a.988.988 0 0 0-1.698.528v.001zm3.522 4.267a.99.99 0 0 0 .874.296l2.69-.426-1.298 2.394a.99.99 0 0 0-.011.923l1.237 2.426-2.678-.494a.99.99 0 0 0-.88.274l-1.926 1.927-.358-2.7a.992.992 0 0 0-.533-.754l-2.427-1.235 2.457-1.174a.996.996 0 0 0 .551-.74l.426-2.69 1.876 1.973zm329.817 13.2a4.732 4.732 0 0 0-.073-3.027l3.931-2.084c.003-.002.006 0 .009 0h2.829a.781.781 0 0 0 .549-.225.766.766 0 0 0-.549-1.313h-6.028l-6.426-3.301a4.777 4.777 0 0 0-.819-4.428 4.873 4.873 0 0 0-1.847-1.426 4.934 4.934 0 0 0-2.306-.41l-6.649.423-.013.002a.593.593 0 0 0-.072.01c-.006.001-.013.001-.019.003a.833.833 0 0 0-.086.022l-.019.007a.88.88 0 0 0-.065.026l-.024.012a.718.718 0 0 0-.061.033l-.017.01a.733.733 0 0 0-.074.054v.001a.731.731 0 0 0-.064.06l-.016.017a1.104 1.104 0 0 0-.043.053l-.016.021a.682.682 0 0 0-.047.076l-.001.003-.002.004a.563.563 0 0 0-.036.079l-.006.018a.605.605 0 0 0-.027.092c-.005.024-.01.047-.012.071l-.002.019a.757.757 0 0 0 .003.178l.004.025a.62.62 0 0 0 .021.09.634.634 0 0 0 .026.073l.004.01a.65.65 0 0 0 .04.079l.004.008 3.373 5.701a4.87 4.87 0 0 0 2.444 2.052 4.933 4.933 0 0 0 3.203.112l.004-.001a4.889 4.889 0 0 0 2.523-1.809l6.573 3.377c.11.058.233.09.357.092h.107l-1.406.741a4.857 4.857 0 0 0-1.848-1.448 4.911 4.911 0 0 0-4.565.286 4.839 4.839 0 0 0-1.649 1.668l-3.37 5.696-.006.01a.718.718 0 0 0-.034.068l-.006.013a.647.647 0 0 0-.03.084l-.005.02a.828.828 0 0 0-.015.068l-.004.025a.862.862 0 0 0-.006.073l-.001.015a.923.923 0 0 0 .019.179l.006.022c.006.022.012.044.02.066l.008.024a.99.99 0 0 0 .034.074l.004.008.001.001.001.002c.014.026.03.051.047.076l.014.017c.014.02.029.038.044.055l.017.018a.843.843 0 0 0 .14.115l.005.003a.714.714 0 0 0 .095.051c.02.008.04.017.061.024a.694.694 0 0 0 .111.031l.006.001c.028.005.056.008.084.011l.01.001 6.646.423a4.876 4.876 0 0 0 3.1-.837 4.789 4.789 0 0 0 1.887-2.573zm-7.232-12.354c.169.544.191 1.121.064 1.675l-7.323-3.755 3.863-.246a3.315 3.315 0 0 1 2.112.571 3.262 3.262 0 0 1 1.284 1.755zm-2.205 4.115a3.371 3.371 0 0 1-2.184-.077 3.321 3.321 0 0 1-1.666-1.399l-2.014-3.403 7.45 3.821a3.344 3.344 0 0 1-1.586 1.058zm7.951 7.788l-.001.004a3.26 3.26 0 0 1-1.285 1.753 3.318 3.318 0 0 1-2.112.57l-3.939-.251 7.359-3.913a3.21 3.21 0 0 1-.022 1.837zm-2.207-4.114a3.343 3.343 0 0 1 1.477.932l-7.3 3.881 1.972-3.333a3.32 3.32 0 0 1 1.666-1.401 3.361 3.361 0 0 1 2.185-.079zm11.289-13.692l4.205 5.633a5.123 5.123 0 0 0-1.791 4.836l1.005 5.758c.159.918.11 1.859-.143 2.755l-.184.644a10.476 10.476 0 0 0 1.975 9.531l-1.384.243a.775.775 0 0 0-.627.895l1.103 6.314a.772.772 0 0 0 .893.628l13.832-2.423a.771.771 0 0 0 .627-.895l-1.102-6.314a.773.773 0 0 0-.894-.629l-.681.12-1.216-1.469a2.889 2.889 0 0 1-.66-2.067l.751-10.296.002-.052v-.063a10.774 10.774 0 0 0-2.065-6.32.798.798 0 0 0-.071-.083l-11.988-12.265a.769.769 0 0 0-1.057-.043 4.053 4.053 0 0 0-.53 5.562zm17.857 33.423l-12.31 2.158-.837-4.79 12.311-2.158.836 4.79zm-5.411-25.635a9.223 9.223 0 0 1 1.748 5.361v.029l-.763 10.27a4.43 4.43 0 0 0 1.005 3.166l.649.789-8.217 1.44a8.922 8.922 0 0 1-2.289-8.793l.182-.644a7.774 7.774 0 0 0 .179-3.445l-1.005-5.758a3.576 3.576 0 0 1 .39-2.337 3.574 3.574 0 0 1 1.762-1.582l1.506 8.62a.774.774 0 0 0 .826.639.773.773 0 0 0 .695-.905l-1.653-9.465a.775.775 0 0 0-.894-.628c-.352.061-.696.16-1.027.294l-4.309-5.773a2.505 2.505 0 0 1-.157-2.907l11.372 11.629z" fill="#fff"/><g clip-path="url(#a)" fill="#fff"><path d="M350.09 247.902l5.61 5.129 4.484-2.331 1.816 1.661L344.574 261l-1.543-1.416 7.195-17.989 1.808 1.653-1.944 4.654zm3.743 6.078l-4.553-4.162-3.478 8.308 8.031-4.146zm-20.419-25.933l5.533 11.156-1.688.831-5.542-11.165 1.697-.822zm-1.39-21.753l.981 7.511 4.944 1.077.316 2.441-18.927-4.51-.273-2.068 17.137-9.19.315 2.424-4.493 2.315zm-1.048 7.045l-.802-6.096-8.031 4.146 8.833 1.95zm-1.424-12.997c-2.063-.161-3.692-.78-4.868-1.857-1.177-1.076-1.705-2.399-1.577-3.976.128-1.568.767-2.763 1.918-3.594l-7.025-.56.188-2.289 19.122 1.518-.17 2.102h-1.45c1.058 1.009 1.518 2.323 1.39 3.959-.128 1.552-.861 2.764-2.225 3.646-1.356.873-3.061 1.229-5.124 1.068l-.179-.017zm.443-2.272c1.526.119 2.746-.093 3.658-.653.912-.559 1.415-1.39 1.5-2.501.12-1.449-.452-2.569-1.713-3.34l-6.19-.492c-1.321.585-2.046 1.586-2.157 3.01-.094 1.119.273 2.034 1.1 2.73.827.695 2.097 1.11 3.802 1.246zm6.011-16.311l-9.14-5.917.614-2.264 11.774 8.164-.46 1.687-14.323 1.178.614-2.263 10.921-.585zm6.3-8.41l-.895 2.12-12.456-5.214.896-2.119 12.455 5.213zm-16.727-4.315a1.385 1.385 0 0 1-.741-.678c-.145-.305-.137-.67.034-1.085.17-.416.426-.678.75-.789.332-.11.665-.101 1.014.043.35.144.589.373.725.678.137.314.12.67-.051 1.085-.171.416-.418.678-.742.789-.315.118-.648.11-.989-.043zm19.276-3.984c.426-.703.588-1.441.478-2.221-.111-.78-.461-1.39-1.075-1.84l1.134-1.856c.64.432 1.134 1.043 1.475 1.822a5.25 5.25 0 0 1 .409 2.535 5.568 5.568 0 0 1-.818 2.535c-.955 1.568-2.242 2.493-3.854 2.781-1.611.288-3.333-.119-5.149-1.213l-.332-.203c-1.126-.678-2.004-1.484-2.626-2.425-.623-.941-.947-1.941-.964-3.001-.017-1.059.299-2.111.938-3.162.785-1.288 1.825-2.128 3.12-2.509 1.296-.382 2.584-.229 3.854.458l-1.134 1.856c-.784-.398-1.569-.483-2.353-.271-.793.212-1.407.695-1.867 1.441-.605 1-.716 1.992-.332 2.976.383.983 1.261 1.89 2.634 2.713l.375.228c1.33.806 2.524 1.153 3.572 1.035 1.066-.102 1.901-.662 2.515-1.679zm9.318-8.876c-1.261 1.314-2.728 1.975-4.39 1.975-1.663 0-3.223-.686-4.681-2.077l-.307-.288c-.972-.924-1.662-1.924-2.071-3.018-.41-1.094-.512-2.17-.307-3.247a5.351 5.351 0 0 1 1.415-2.764c1.211-1.263 2.575-1.848 4.084-1.754 1.509.093 3.043.881 4.603 2.356l.7.662-6.318 6.587c.989.89 2.038 1.348 3.146 1.373 1.108.026 2.055-.373 2.848-1.204.562-.585.92-1.195 1.065-1.831a5.087 5.087 0 0 0 .068-1.975l1.774-.263c.477 2.026-.068 3.84-1.629 5.468zm-8.968-8.105c-.64.67-.938 1.467-.887 2.391.051.924.469 1.857 1.253 2.806l4.672-4.866-.128-.119c-.895-.754-1.773-1.153-2.626-1.186-.852-.051-1.611.279-2.284.974z"/></g><g clip-path="url(#b)" fill="#fff"><path d="M141.695 352.568l-3.212 2.732 4.694 5.543-1.81 1.541-11.602-13.7 4.524-3.847c1.538-1.307 3.026-1.968 4.449-1.973 1.422-.005 2.699.67 3.844 2.016.719.859 1.118 1.79 1.192 2.817.075 1.028-.168 2.038-.72 3.057l8.139 3.085.096.107-1.931 1.648-7.663-3.026zm-4.464 1.265l2.775-2.36c.892-.767 1.41-1.599 1.547-2.512.136-.914-.123-1.768-.781-2.54-.721-.846-1.515-1.282-2.406-1.312-.892-.029-1.806.361-2.769 1.167l-2.76 2.349 4.394 5.208zm28.253-16.469l-11.14 5.334-.804-1.683 11.141-5.334.803 1.683zm17.46-4.267l-4.115.889 1.52 7.113-2.33.5-3.755-17.576 5.806-1.245c1.97-.422 3.589-.302 4.853.371 1.252.671 2.065 1.868 2.439 3.591.229 1.093.139 2.105-.271 3.046-.422.94-1.113 1.729-2.069 2.356l5.715 6.572.026.146-2.478.537-5.341-6.3zm-4.523-1.006l3.557-.77c1.145-.247 2-.737 2.543-1.489.553-.736.722-1.618.503-2.62-.23-1.094-.736-1.851-1.503-2.295-.767-.444-1.763-.53-2.985-.284l-3.542.759 1.427 6.699zm19.447 6.576c-1.804.13-3.305-.367-4.517-1.48-1.212-1.114-1.886-2.658-2.021-4.647l-.029-.416c-.085-1.325.087-2.514.509-3.595.434-1.079 1.086-1.939 1.943-2.584a5.303 5.303 0 0 1 2.882-1.082c1.724-.118 3.113.359 4.153 1.429 1.041 1.07 1.627 2.676 1.775 4.808l.063.949-9.014.626c.128 1.306.583 2.35 1.372 3.106.788.756 1.753 1.093 2.88 1.023.803-.05 1.469-.266 2.008-.633a5.098 5.098 0 0 0 1.377-1.413l1.465.992c-1.01 1.798-2.618 2.772-4.846 2.917zm-1.106-11.919c-.921.068-1.668.449-2.244 1.169-.573.708-.899 1.677-.961 2.899l6.666-.464-.008-.168c-.142-1.155-.512-2.03-1.124-2.626-.595-.619-1.368-.884-2.329-.81zm10.986 11.536l-2.283-.057.486-18.956 2.271.055-.474 18.958zm4.795-16.665c.026-.368.171-.676.416-.903.247-.238.584-.333 1.027-.306.442.04.774.189.981.469.208.268.292.591.265.959a1.291 1.291 0 0 1-.413.89c-.245.226-.595.318-1.038.291-.441-.04-.761-.186-.97-.454-.209-.268-.295-.579-.268-.946zm1.068 17.048l-2.273-.184 1.101-13.313 2.274.184-1.102 13.313zm11.359 1.613c-.091-.285-.121-.766-.091-1.441-1.225.913-2.554 1.256-4.011 1.023-1.294-.216-2.301-.754-3.018-1.625-.716-.872-.976-1.868-.787-3.003.217-1.374.916-2.355 2.083-2.944 1.168-.59 2.692-.731 4.584-.421l2.191.362.17-1.036c.126-.786.001-1.451-.402-1.997-.391-.544-1.046-.892-1.968-1.042-.797-.128-1.505-.035-2.112.281-.607.316-.956.768-1.057 1.341l-2.267-.363c.104-.662.44-1.257 1.01-1.798.57-.542 1.277-.917 2.138-1.15.861-.233 1.763-.266 2.722-.109 1.519.244 2.648.816 3.373 1.714.737.901 1.014 2.016.827 3.357l-.984 6.066c-.201 1.21-.197 2.2-.012 2.964l-.035.199-2.354-.378zm-3.446-2.317c.71.112 1.402.042 2.101-.219.687-.264 1.233-.668 1.61-1.205l.441-2.708-1.768-.287c-2.752-.449-4.264.131-4.525 1.754-.114.712.025 1.301.429 1.771.402.482.965.774 1.712.894zm20.991.53c-.613 1.946-1.545 3.374-2.807 4.28-1.262.907-2.643 1.111-4.148.64-1.602-.502-2.675-1.463-3.193-2.877l-.563 1.441-2.003-.624 5.664-18.104 2.173.68-2.118 6.752c1.22-.811 2.595-.979 4.149-.498 1.543.478 2.576 1.444 3.087 2.896.512 1.452.461 3.189-.181 5.22l-.06.194zm-2.089-.934c.468-1.484.532-2.718.221-3.711-.323-.994-1.013-1.656-2.094-1.988-1.433-.447-2.673-.101-3.719 1.036l-1.732 5.51c.252 1.547 1.075 2.541 2.483 2.982 1.044.326 1.981.171 2.809-.453.852-.619 1.526-1.745 2.032-3.376zm4.649 9.195l-2.098-.885 5.202-12.305 2.098.885-5.202 12.305zm4.31-16.533c.151-.346.374-.589.68-.728.308-.15.665-.139 1.07.036.404.174.667.426.778.741.109.327.101.66-.048.993-.151.346-.371.576-.677.715-.306.138-.663.126-1.08-.05-.405-.175-.67-.414-.781-.729a1.42 1.42 0 0 1 .058-.978zm.998 19.039l-2.036-1.015 8.403-17.003 2.036 1.015-8.403 17.003zm5.137 2.823l-1.977-1.133 6.637-11.589 1.977 1.133-6.637 11.589zm6.247-15.895c.186-.327.441-.538.755-.65.327-.109.675-.047 1.06.162.386.21.617.495.684.841.069.333.022.671-.162.985a1.362 1.362 0 0 1-.765.635c-.325.097-.673.035-1.056-.187s-.617-.494-.688-.815c-.057-.331 0-.655.172-.971zm8.426 5.588l-1.808 2.685 2.06 1.391-.99 1.469-2.06-1.392-4.626 6.885c-.297.448-.43.836-.402 1.187.029.339.279.666.713.961.219.142.549.303.978.482l-1.026 1.526a6.52 6.52 0 0 1-1.593-.77c-.846-.574-1.314-1.26-1.39-2.057-.09-.799.193-1.673.821-2.615l4.624-6.873-2.014-1.358.99-1.468 2.014 1.358 1.808-2.685 1.901 1.274zm.108 16.685l8.795-5.685 1.875 1.565-13.987 8.387c-2.066 1.175-3.783 1.179-5.165.01l-.303-.31-.547-.675 1.187-1.421.435.437c.59.502 1.157.77 1.69.8.53.042 1.172-.178 1.919-.636l1.254-.716 4.82-13.194 1.908 1.596-3.881 9.842z"/></g><defs><clipPath id="a"><path fill="#fff" transform="rotate(-90 289.5 -28.5)" d="M0 0h116v44H0z"/></clipPath><clipPath id="b"><path fill="#fff" transform="rotate(10.039 -1672.685 934.82)" d="M0 0h149.864v54.95H0z"/></clipPath></defs></svg>