<svg width="36" height="33" viewBox="0 0 36 33" fill="none" xmlns="http://www.w3.org/2000/svg"><mask id="a" fill="#fff"><path d="M14.727 3.3c-1.618 0-3.2.484-4.545 1.39a8.236 8.236 0 0 0-3.014 3.703 8.314 8.314 0 0 0-.465 4.766 8.272 8.272 0 0 0 2.239 4.225 8.162 8.162 0 0 0 4.19 2.258 8.12 8.12 0 0 0 4.726-.47 8.196 8.196 0 0 0 3.672-3.038A8.295 8.295 0 0 0 20.51 5.72a8.158 8.158 0 0 0-5.783-2.42zm6.463 7.425h-1.602a11.514 11.514 0 0 0-1.17-4.619 6.576 6.576 0 0 1 1.877 2.01c.478.796.783 1.685.895 2.609zm-7.28-5.506v5.506H11.5c.183-2.785 1.244-4.828 2.41-5.506zm0 7.156v5.506c-1.166-.678-2.227-2.721-2.41-5.506h2.41zm1.636 5.506v-5.506h2.409c-.183 2.785-1.244 4.828-2.41 5.506zm0-7.156V5.219c1.165.678 2.226 2.721 2.409 5.506h-2.41zm-4.51-4.619a11.514 11.514 0 0 0-1.17 4.619H8.265a6.623 6.623 0 0 1 .895-2.609 6.565 6.565 0 0 1 1.877-2.01zm-2.771 6.269h1.601a11.515 11.515 0 0 0 1.17 4.619 6.566 6.566 0 0 1-1.876-2.01 6.624 6.624 0 0 1-.896-2.609zm10.153 4.619a11.514 11.514 0 0 0 1.17-4.619h1.602a6.624 6.624 0 0 1-.895 2.609 6.566 6.566 0 0 1-1.877 2.01z"/><path d="M29.454 18.975V4.125a4.147 4.147 0 0 0-1.2-2.915A4.079 4.079 0 0 0 25.365 0H4.09A4.079 4.079 0 0 0 1.2 1.21 4.147 4.147 0 0 0 0 4.125v14.85a4.147 4.147 0 0 0 1.2 2.915 4.079 4.079 0 0 0 2.89 1.21h5.728v4.125a.83.83 0 0 0 .452.738.812.812 0 0 0 .857-.078l6.327-4.785h7.91a4.079 4.079 0 0 0 2.89-1.21 4.147 4.147 0 0 0 1.2-2.915zM17.182 21.45a.812.812 0 0 0-.49.165l-5.238 3.96v-3.3a.83.83 0 0 0-.505-.762.81.81 0 0 0-.313-.063H4.091c-.65 0-1.275-.262-1.735-.726a2.488 2.488 0 0 1-.72-1.749V4.125c.001-.656.26-1.285.72-1.75a2.447 2.447 0 0 1 1.735-.725h21.273c.65 0 1.274.262 1.735.726.46.464.718 1.093.72 1.749v14.85a2.498 2.498 0 0 1-.72 1.75 2.447 2.447 0 0 1-1.735.725h-8.182z"/><path d="M31.91 4.95a.815.815 0 0 0-.58.242.829.829 0 0 0 0 1.166.815.815 0 0 0 .58.242c.65 0 1.274.262 1.734.726a2.49 2.49 0 0 1 .72 1.749v14.85a2.494 2.494 0 0 1-.72 1.75 2.447 2.447 0 0 1-1.735.725h-6.545a.81.81 0 0 0-.579.242.825.825 0 0 0-.24.583v3.3l-5.236-3.96a.813.813 0 0 0-1.145.165.83.83 0 0 0 .164 1.155l6.545 4.95a.808.808 0 0 0 .804.102.817.817 0 0 0 .443-.446.83.83 0 0 0 .062-.316V28.05h5.727a4.079 4.079 0 0 0 2.891-1.21 4.148 4.148 0 0 0 1.2-2.915V9.075a4.148 4.148 0 0 0-1.2-2.915 4.079 4.079 0 0 0-2.89-1.21z"/></mask><path d="M14.727 3.3c-1.618 0-3.2.484-4.545 1.39a8.236 8.236 0 0 0-3.014 3.703 8.314 8.314 0 0 0-.465 4.766 8.272 8.272 0 0 0 2.239 4.225 8.162 8.162 0 0 0 4.19 2.258 8.12 8.12 0 0 0 4.726-.47 8.196 8.196 0 0 0 3.672-3.038A8.295 8.295 0 0 0 20.51 5.72a8.158 8.158 0 0 0-5.783-2.42zm6.463 7.425h-1.602a11.514 11.514 0 0 0-1.17-4.619 6.576 6.576 0 0 1 1.877 2.01c.478.796.783 1.685.895 2.609zm-7.28-5.506v5.506H11.5c.183-2.785 1.244-4.828 2.41-5.506zm0 7.156v5.506c-1.166-.678-2.227-2.721-2.41-5.506h2.41zm1.636 5.506v-5.506h2.409c-.183 2.785-1.244 4.828-2.41 5.506zm0-7.156V5.219c1.165.678 2.226 2.721 2.409 5.506h-2.41zm-4.51-4.619a11.514 11.514 0 0 0-1.17 4.619H8.265a6.623 6.623 0 0 1 .895-2.609 6.565 6.565 0 0 1 1.877-2.01zm-2.771 6.269h1.601a11.515 11.515 0 0 0 1.17 4.619 6.566 6.566 0 0 1-1.876-2.01 6.624 6.624 0 0 1-.896-2.609zm10.153 4.619a11.514 11.514 0 0 0 1.17-4.619h1.602a6.624 6.624 0 0 1-.895 2.609 6.566 6.566 0 0 1-1.877 2.01z" fill="#fff"/><path d="M29.454 18.975V4.125a4.147 4.147 0 0 0-1.2-2.915A4.079 4.079 0 0 0 25.365 0H4.09A4.079 4.079 0 0 0 1.2 1.21 4.147 4.147 0 0 0 0 4.125v14.85a4.147 4.147 0 0 0 1.2 2.915 4.079 4.079 0 0 0 2.89 1.21h5.728v4.125a.83.83 0 0 0 .452.738.812.812 0 0 0 .857-.078l6.327-4.785h7.91a4.079 4.079 0 0 0 2.89-1.21 4.147 4.147 0 0 0 1.2-2.915zM17.182 21.45a.812.812 0 0 0-.49.165l-5.238 3.96v-3.3a.83.83 0 0 0-.505-.762.81.81 0 0 0-.313-.063H4.091c-.65 0-1.275-.262-1.735-.726a2.488 2.488 0 0 1-.72-1.749V4.125c.001-.656.26-1.285.72-1.75a2.447 2.447 0 0 1 1.735-.725h21.273c.65 0 1.274.262 1.735.726.46.464.718 1.093.72 1.749v14.85a2.498 2.498 0 0 1-.72 1.75 2.447 2.447 0 0 1-1.735.725h-8.182z" fill="#fff"/><path d="M31.91 4.95a.815.815 0 0 0-.58.242.829.829 0 0 0 0 1.166.815.815 0 0 0 .58.242c.65 0 1.274.262 1.734.726a2.49 2.49 0 0 1 .72 1.749v14.85a2.494 2.494 0 0 1-.72 1.75 2.447 2.447 0 0 1-1.735.725h-6.545a.81.81 0 0 0-.579.242.825.825 0 0 0-.24.583v3.3l-5.236-3.96a.813.813 0 0 0-1.145.165.83.83 0 0 0 .164 1.155l6.545 4.95a.808.808 0 0 0 .804.102.817.817 0 0 0 .443-.446.83.83 0 0 0 .062-.316V28.05h5.727a4.079 4.079 0 0 0 2.891-1.21 4.148 4.148 0 0 0 1.2-2.915V9.075a4.148 4.148 0 0 0-1.2-2.915 4.079 4.079 0 0 0-2.89-1.21z" fill="#fff"/><path d="M14.727 3.3c-1.618 0-3.2.484-4.545 1.39a8.236 8.236 0 0 0-3.014 3.703 8.314 8.314 0 0 0-.465 4.766 8.272 8.272 0 0 0 2.239 4.225 8.162 8.162 0 0 0 4.19 2.258 8.12 8.12 0 0 0 4.726-.47 8.196 8.196 0 0 0 3.672-3.038A8.295 8.295 0 0 0 20.51 5.72a8.158 8.158 0 0 0-5.783-2.42zm6.463 7.425h-1.602a11.514 11.514 0 0 0-1.17-4.619 6.576 6.576 0 0 1 1.877 2.01c.478.796.783 1.685.895 2.609zm-7.28-5.506v5.506H11.5c.183-2.785 1.244-4.828 2.41-5.506zm0 7.156v5.506c-1.166-.678-2.227-2.721-2.41-5.506h2.41zm1.636 5.506v-5.506h2.409c-.183 2.785-1.244 4.828-2.41 5.506zm0-7.156V5.219c1.165.678 2.226 2.721 2.409 5.506h-2.41zm-4.51-4.619a11.514 11.514 0 0 0-1.17 4.619H8.265a6.623 6.623 0 0 1 .895-2.609 6.565 6.565 0 0 1 1.877-2.01zm-2.771 6.269h1.601a11.515 11.515 0 0 0 1.17 4.619 6.566 6.566 0 0 1-1.876-2.01 6.624 6.624 0 0 1-.896-2.609zm10.153 4.619a11.514 11.514 0 0 0 1.17-4.619h1.602a6.624 6.624 0 0 1-.895 2.609 6.566 6.566 0 0 1-1.877 2.01z" stroke="#284875" stroke-width=".7" mask="url(#a)"/><path d="M29.454 18.975V4.125a4.147 4.147 0 0 0-1.2-2.915A4.079 4.079 0 0 0 25.365 0H4.09A4.079 4.079 0 0 0 1.2 1.21 4.147 4.147 0 0 0 0 4.125v14.85a4.147 4.147 0 0 0 1.2 2.915 4.079 4.079 0 0 0 2.89 1.21h5.728v4.125a.83.83 0 0 0 .452.738.812.812 0 0 0 .857-.078l6.327-4.785h7.91a4.079 4.079 0 0 0 2.89-1.21 4.147 4.147 0 0 0 1.2-2.915zM17.182 21.45a.812.812 0 0 0-.49.165l-5.238 3.96v-3.3a.83.83 0 0 0-.505-.762.81.81 0 0 0-.313-.063H4.091c-.65 0-1.275-.262-1.735-.726a2.488 2.488 0 0 1-.72-1.749V4.125c.001-.656.26-1.285.72-1.75a2.447 2.447 0 0 1 1.735-.725h21.273c.65 0 1.274.262 1.735.726.46.464.718 1.093.72 1.749v14.85a2.498 2.498 0 0 1-.72 1.75 2.447 2.447 0 0 1-1.735.725h-8.182z" stroke="#284875" stroke-width=".4" mask="url(#a)"/><path d="M31.91 4.95a.815.815 0 0 0-.58.242.829.829 0 0 0 0 1.166.815.815 0 0 0 .58.242c.65 0 1.274.262 1.734.726a2.49 2.49 0 0 1 .72 1.749v14.85a2.494 2.494 0 0 1-.72 1.75 2.447 2.447 0 0 1-1.735.725h-6.545a.81.81 0 0 0-.579.242.825.825 0 0 0-.24.583v3.3l-5.236-3.96a.813.813 0 0 0-1.145.165.83.83 0 0 0 .164 1.155l6.545 4.95a.808.808 0 0 0 .804.102.817.817 0 0 0 .443-.446.83.83 0 0 0 .062-.316V28.05h5.727a4.079 4.079 0 0 0 2.891-1.21 4.148 4.148 0 0 0 1.2-2.915V9.075a4.148 4.148 0 0 0-1.2-2.915 4.079 4.079 0 0 0-2.89-1.21z" stroke="#284875" stroke-width=".4" mask="url(#a)"/></svg>