<svg width="29" height="26" fill="none" xmlns="http://www.w3.org/2000/svg"><path d="M.645 0A.647.647 0 000 .65c0 .359.289.65.645.65h3.988l3.394 16.19c-.034.37.307.729.675.71h16.115c.34.005.654-.306.654-.65 0-.343-.314-.655-.654-.65H9.226l-.544-2.6h17.424a.667.667 0 00.625-.508l2.256-9.75c.084-.377-.241-.79-.625-.792H6.365L5.791.508A.666.666 0 005.157 0H.645zm5.992 4.55h20.92L25.593 13H8.41L6.637 4.55zm5.61 15.6c-1.594 0-2.9 1.317-2.9 2.925 0 1.608 1.306 2.925 2.9 2.925 1.595 0 2.901-1.317 2.901-2.925 0-1.608-1.306-2.925-2.9-2.925zm9.025 0c-1.595 0-2.901 1.317-2.901 2.925 0 1.608 1.306 2.925 2.9 2.925 1.595 0 2.901-1.317 2.901-2.925 0-1.608-1.306-2.925-2.9-2.925zm-9.025 1.3c.898 0 1.612.72 1.612 1.625s-.714 1.625-1.612 1.625c-.897 0-1.611-.72-1.611-1.625s.714-1.625 1.611-1.625zm9.025 0c.897 0 1.611.72 1.611 1.625S22.17 24.7 21.272 24.7s-1.612-.72-1.612-1.625.714-1.625 1.612-1.625z" fill="#fff"/></svg>