<svg width="10" height="9" fill="none" xmlns="http://www.w3.org/2000/svg"><path d="M4.905.91A.09.09 0 014.94.858.108.108 0 015 .842c.026 0 .047.007.06.016.01.008.025.02.035.053l.642 1.975a1.1 1.1 0 001.046.76H8.86c.034 0 .05.01.06.017a.11.11 0 01.035.052.108.108 0 01.002.062c-.003.012-.011.03-.038.05l-1.68 1.22a1.1 1.1 0 00-.4 1.23l.475-.154-.475.154.642 1.975c.01.033.006.051.002.063a.108.108 0 01-.039.05.108.108 0 01-.058.021.097.097 0 01-.06-.022l-1.68-1.22a1.1 1.1 0 00-1.293 0l-1.68 1.22a.093.093 0 01-.059.022.108.108 0 01-.058-.022.108.108 0 01-.039-.049c-.004-.012-.008-.03.002-.063l.642-1.975a1.1 1.1 0 00-.4-1.23l-.293.405.294-.405-1.68-1.22a.096.096 0 01-.04-.05.108.108 0 01.003-.062.108.108 0 01.035-.052c.01-.008.026-.017.06-.017h2.077a1.1 1.1 0 001.046-.76L4.905.91z" stroke="#0B4899"/></svg>