<svg width="43" height="21" fill="none" xmlns="http://www.w3.org/2000/svg"><path d="M36.084 21c-1.347 0-2.598-.855-2.886-2.186l-.05-.148a.2.2 0 00-.19-.137H20.643a.2.2 0 00-.19.137l-.05.148C20.018 20.145 18.864 21 17.517 21c-1.347 0-2.597-.855-2.886-2.186l-.05-.148a.2.2 0 00-.19-.137h-3.6a.2.2 0 01-.2-.2V.2c0-.11.09-.2.2-.2h19.994c.11 0 .2.09.2.2v3.781c0 .11.09.2.2.2h6.905a.2.2 0 01.169.093l4.336 6.89a.2.2 0 01.03.106v7.06a.2.2 0 01-.2.2h-3.12a.2.2 0 00-.189.136l-.05.148C38.681 20.145 37.431 21 36.084 21zm0-5.036a2.02 2.02 0 00-2.02 1.995c0 1.14.962 1.996 2.02 1.996a2.02 2.02 0 002.02-1.996c.096-1.045-.866-1.995-2.02-1.995zm-18.567 0a2.02 2.02 0 00-2.02 1.995c0 1.14.962 1.996 2.02 1.996s2.02-.95 2.02-1.996a2.02 2.02 0 00-2.02-1.995zm18.567-.95c1.347 0 2.597.855 2.886 2.185l.05.15a.2.2 0 00.19.135h2.157a.2.2 0 00.2-.2v-5.301a.2.2 0 00-.2-.2h-3.736a.2.2 0 01-.2-.2V5.33a.2.2 0 00-.2-.2h-6.046a.2.2 0 00-.2.2v11.953c0 .11.09.2.2.2h1.773a.2.2 0 00.19-.136l.05-.149c.385-1.235 1.539-2.185 2.886-2.185zm-18.567 0c1.347 0 2.598.855 2.886 2.185l.05.15a.2.2 0 00.19.135h9.18a.2.2 0 00.2-.2V1.15a.2.2 0 00-.2-.2h-18.07a.2.2 0 00-.2.2v16.134c0 .11.09.2.2.2h2.638a.2.2 0 00.19-.136l.05-.149c.289-1.235 1.54-2.185 2.886-2.185zm20.972-4.381c0 .11.09.2.2.2h2.229a.2.2 0 00.17-.306l-2.23-3.569c-.106-.17-.37-.095-.37.106v3.569zm-2.405 7.896c-.074 0-.204-.055-.304-.081-.051-.014-.105-.032-.132-.078-.045-.077-.045-.168-.045-.316 0-.072.055-.2.082-.298.014-.051.033-.106.08-.133.078-.044.17-.044.319-.044.192 0 .288 0 .385.095.096.095.096.19.096.38 0 .076 0 .213-.05.314-.023.047-.077.066-.126.084-.076.027-.165.077-.305.077zm-18.567 0c-.073 0-.204-.055-.304-.081-.05-.014-.105-.032-.131-.078-.046-.077-.046-.168-.046-.316 0-.072.056-.2.082-.298.014-.051.034-.106.08-.133.079-.044.17-.044.32-.044.095 0 .288 0 .384.095.096.095.096.19.096.38a.712.712 0 01-.047.187.406.406 0 01-.245.229c-.076.027-.132.06-.189.06zM2.325 14.35a.2.2 0 01-.2-.2v-.55a.2.2 0 01.2-.2h5.18a.2.2 0 01.2.2v.55a.2.2 0 01-.2.2h-5.18zM.401 9.691a.2.2 0 01-.2-.2v-.55c0-.11.09-.2.2-.2h7.104c.11 0 .2.09.2.2v.55a.2.2 0 01-.2.2H.4zm1.924-4.56a.2.2 0 01-.2-.2V4.38c0-.11.09-.2.2-.2h5.18c.11 0 .2.09.2.2v.55a.2.2 0 01-.2.2h-5.18z" fill="#fff"/></svg>