<svg width="80" height="22" fill="none" xmlns="http://www.w3.org/2000/svg"><path d="M16.466 16.827h-3.078L15.313 5.21h3.078l-1.925 11.616zm11.16-11.332A7.752 7.752 0 0024.865 5c-3.04 0-5.18 1.582-5.194 3.843-.025 1.668 1.533 2.595 2.698 3.152 1.19.568 1.596.939 1.596 1.446-.012.778-.963 1.137-1.849 1.137-1.229 0-1.887-.185-2.888-.618l-.405-.186-.431 2.608c.722.32 2.052.605 3.433.618 3.23 0 5.333-1.557 5.358-3.967.012-1.322-.81-2.336-2.584-3.164-1.077-.531-1.736-.89-1.736-1.433.012-.495.557-1.001 1.773-1.001 1-.025 1.736.21 2.293.445l.278.123.419-2.508zm4.091 7.217l1.229-3.25c-.013.024.253-.68.405-1.113l.215 1.001s.583 2.78.71 3.362h-2.56zm3.8-7.501h-2.382c-.734 0-1.292.21-1.608.963l-4.573 10.653h3.23l.646-1.743h3.952c.089.408.368 1.743.368 1.743H38L35.516 5.21zM10.818 5.21l-3.015 7.922-.33-1.607c-.557-1.853-2.305-3.867-4.255-4.869l2.761 10.159h3.255L14.073 5.21h-3.255z" fill="#00579F"/><path d="M5.003 5.21H.051L0 5.446c3.863.964 6.422 3.288 7.473 6.08L6.397 6.188c-.178-.742-.722-.952-1.394-.976z" fill="#FAA61A"/><path d="M67.231 2.353h-9.463v17.294h9.463V2.353z" fill="#FF5F00"/><path d="M58.37 11c0-3.514 1.622-6.63 4.116-8.647A10.636 10.636 0 0055.816 0C49.837 0 45 4.92 45 11s4.837 11 10.816 11c2.523 0 4.837-.886 6.67-2.353-2.494-1.986-4.116-5.133-4.116-8.647z" fill="#EB001B"/><path d="M80 11c0 6.08-4.837 11-10.816 11-2.523 0-4.837-.886-6.67-2.353 2.524-2.016 4.117-5.133 4.117-8.647a11.1 11.1 0 00-4.116-8.647A10.637 10.637 0 0169.185 0C75.162 0 80 4.95 80 11z" fill="#F79E1B"/></svg>