<?xml version="1.0" standalone="no"?>
<!DOCTYPE svg PUBLIC "-//W3C//DTD SVG 20010904//EN"
 "http://www.w3.org/TR/2001/REC-SVG-20010904/DTD/svg10.dtd">
<svg version="1.0" xmlns="http://www.w3.org/2000/svg"
 width="256.000000pt" height="256.000000pt" viewBox="0 0 256.000000 256.000000"
 preserveAspectRatio="xMidYMid meet">
<metadata>
Created by potrace 1.11, written by Peter Selinger 2001-2013
</metadata>
<g transform="translate(0.000000,256.000000) scale(0.100000,-0.100000)"
fill="#000000" stroke="none">
<path d="M1169 2340 c-271 -34 -527 -217 -651 -465 -66 -131 -88 -236 -91
-431 l-3 -149 -36 -50 c-66 -89 -82 -166 -53 -262 18 -62 88 -143 149 -173 35
-18 48 -33 75 -88 123 -249 320 -423 551 -487 87 -24 253 -25 335 -1 241 69
433 237 555 487 27 53 41 70 79 91 169 96 208 290 90 440 l-34 42 -1 127 c-2
184 -12 251 -55 367 -70 193 -202 346 -391 455 -51 30 -201 82 -263 92 -63 10
-195 13 -256 5z m696 -860 c41 -22 55 -67 55 -183 l0 -104 40 -27 c66 -44 83
-104 45 -163 -14 -21 -55 -39 -104 -46 -14 -2 -28 -10 -32 -18 -4 -8 -29 -61
-57 -119 -59 -122 -119 -201 -200 -266 -108 -86 -214 -126 -332 -125 -239 2
-448 169 -562 450 -27 67 -31 70 -106 90 -98 27 -104 138 -12 196 l40 25 0
111 c0 144 18 177 104 191 11 2 262 2 558 2 417 -1 545 -4 563 -14z"/>
</g>
</svg>
