<svg id="logo" viewBox="0 0 854.2999877929688 221.89999389648438"><path fill="#FFFFFF" d="M777.7,50.1c7.1-5.8,17.3-8.7,30.8-8.7c21.3,0,35.6,7.1,42.8,21.4c0.8,1.6,1.2,2.9,1.2,3.8   c0,1.2-0.4,2.2-1.1,2.9c-0.7,0.7-1.9,1.5-3.5,2.3l-8.8,3.6c-1.6,0.8-2.9,1.2-3.8,1.2c-0.8,0-1.6-0.3-2.3-0.9   c-0.7-0.6-1.6-1.6-2.5-3.1c-1.9-3.5-4.4-6.1-7.7-7.9c-3.3-1.8-7.9-2.7-13.9-2.7c-12.5,0-18.8,3.7-18.8,11c0,4.4,1.7,7.3,5.2,8.8   c3.5,1.5,9.5,2.6,18.2,3.4c9.1,0.9,16.5,2.3,22.2,4.2c5.7,1.9,10.3,5,13.6,9.3c3.3,4.3,5,10.2,5,17.7c0,10.1-3.8,18.2-11.3,24.3   c-7.5,6.1-18.2,9.1-32.1,9.1c-11.6,0-21.1-2.1-28.5-6.2c-7.4-4.1-12.6-10.1-15.7-18c-0.5-1.1-0.8-2.2-0.8-3.4c0-2.1,1.5-3.8,4.6-5   l9-2.8c1.2-0.4,2.3-0.6,3.2-0.6c1.1,0,2,0.3,2.8,1c0.8,0.7,1.5,1.8,2.2,3.4c1.6,3.9,4.3,6.7,8,8.4c3.7,1.7,8.7,2.6,14.8,2.6   c14.1,0,21.2-3.9,21.2-11.8c0-4.4-1.8-7.4-5.3-8.9c-3.5-1.5-9.8-2.8-18.7-3.7c-8.4-0.8-15.4-2-21-3.6c-5.6-1.6-10.3-4.6-14-8.9   c-3.7-4.3-5.6-10.6-5.6-18.7C767.1,63.8,770.6,55.9,777.7,50.1z"></path><path fill="#FFFFFF" d="M112.5,81.2c0.9,0.9,1.4,2.7,1.4,5.4v13.7c0,9-2.2,17.1-6.7,24.2c-4.5,7.1-11,12.7-19.6,16.7   c-8.6,4-18.8,6-30.6,6c-18.2,0-32.3-4.6-42.2-13.9C5,124.1,0,111.5,0,95.4V51.9c0-16.1,5-28.8,14.9-38C24.8,4.6,38.8,0,57.1,0   c28.3,0,46.4,11.1,54.3,33.3c0.4,1.3,0.6,2.5,0.6,3.4c0,1.3-0.4,2.4-1.1,3.2c-0.7,0.8-2,1.5-3.7,2.2l-11,3.8   c-1.2,0.5-2.4,0.8-3.6,0.8c-1.2,0-2.2-0.4-2.9-1.2c-0.7-0.8-1.4-2.1-2.1-3.8c-2.4-6.1-6.1-10.7-11-13.8c-4.9-3.1-11.4-4.6-19.6-4.6   c-10.4,0-18.3,2.4-23.8,7.3c-5.5,4.9-8.3,11.9-8.3,21v43.9c0,9.2,2.8,16.2,8.4,21c5.6,4.9,13.5,7.3,23.7,7.3   c10,0,17.8-2.2,23.5-6.5c5.7-4.3,8.6-9.9,8.6-16.9v2.2H64.3c-2.5,0-4.3-0.5-5.3-1.6c-1-1.1-1.5-2.9-1.5-5.4v-9.2   c0-2.5,0.5-4.3,1.5-5.3c1-1,2.8-1.5,5.3-1.5h42.9C109.8,79.8,111.6,80.3,112.5,81.2z"></path><path fill="#FFFFFF" d="M130.1,50.2c7.9-7.4,19.4-11.1,34.4-11.1c15.2,0,26.6,3.8,34.4,11.5c7.8,7.6,11.7,17.4,11.7,29.2v14.8   c0,2.8-0.7,4.9-2,6.4c-1.3,1.5-3.6,2.2-6.8,2.2h-60.5v4.2c0,6.5,2,11.5,5.9,14.9c3.9,3.4,9.5,5.1,16.9,5.1c11.2,0,19-3.5,23.5-10.6   c2-2.7,3.9-4,5.6-4c1.2,0,2.7,0.5,4.6,1.6l7,3.8c2.7,1.3,4,3.1,4,5.2c0,1.6-0.5,3.2-1.6,4.8c-7.8,12.8-22.2,19.2-43.1,19.2   c-15.6,0-27.1-3.9-34.6-11.6c-7.5-7.7-11.3-18.1-11.3-31.1V81.6C118.3,68,122.2,57.6,130.1,50.2z M181.6,63.8   c-3.9-3.5-9.6-5.2-17.1-5.2c-7.5,0-13.2,1.7-17.2,5.2c-4,3.5-6,8.3-6,14.6v0.8h46.1v-0.8C187.5,72.2,185.5,67.3,181.6,63.8z"></path><path fill="#FFFFFF" d="M620.1,50.2c7.9-7.4,19.4-11.1,34.4-11.1c15.2,0,26.6,3.8,34.4,11.5c7.8,7.6,11.7,17.4,11.7,29.2v14.8   c0,2.8-0.7,4.9-2,6.4c-1.3,1.5-3.6,2.2-6.8,2.2h-60.5v4.2c0,6.5,2,11.5,5.9,14.9c3.9,3.4,9.5,5.1,16.9,5.1c11.2,0,19-3.5,23.5-10.6   c2-2.7,3.9-4,5.6-4c1.2,0,2.7,0.5,4.6,1.6l7,3.8c2.7,1.3,4,3.1,4,5.2c0,1.6-0.5,3.2-1.6,4.8c-7.8,12.8-22.2,19.2-43.1,19.2   c-15.6,0-27.1-3.9-34.6-11.6c-7.5-7.7-11.3-18.1-11.3-31.1V81.6C608.3,68,612.2,57.6,620.1,50.2z M671.6,63.8   c-3.9-3.5-9.6-5.2-17.1-5.2c-7.5,0-13.2,1.7-17.2,5.2c-4,3.5-6,8.3-6,14.6v0.8h46.1v-0.8C677.5,72.2,675.5,67.3,671.6,63.8z"></path><path fill="#FFFFFF" d="M379.6,19.5c10.1,9.4,15.2,22.2,15.2,38.6v36.3c0,16.4-5.1,29.2-15.2,38.6c-10.1,9.4-24.3,14.1-42.7,14.1   H292c-2.5,0-4.3-0.5-5.3-1.5c-1-1-1.5-2.8-1.5-5.3V12.2c0-2.5,0.5-4.3,1.5-5.3c1-1,2.8-1.5,5.3-1.5h44.9   C355.2,5.4,369.5,10.1,379.6,19.5z M361.3,36.2c-5.7-5-13.7-7.5-24.2-7.5h-26.7v95h26.7c10.5,0,18.6-2.5,24.2-7.5   c5.7-5,8.5-12.2,8.5-21.6V57.9C369.8,48.4,367,41.2,361.3,36.2z"></path><path fill="#FFFFFF" d="M218.8,23.1c0-2.3,0.5-3.8,1.4-4.7c0.9-0.9,2.5-1.3,4.8-1.3h11c2.3,0,3.8,0.4,4.7,1.3   c0.9,0.9,1.3,2.4,1.3,4.7v79c0,6.5,0.7,11.4,2.2,14.7c1.5,3.3,3.8,5.5,6.9,6.6c3.1,1.1,7.7,1.7,13.7,1.7c2.3,0,3.9,0.4,4.8,1.3   c0.9,0.9,1.4,2.5,1.4,4.9v9.2c0,2.4-0.5,4.1-1.4,5.2c-0.9,1.1-2.5,1.6-4.8,1.6c-11.4,0-20.4-1.3-26.9-4   c-6.5-2.7-11.3-7.1-14.4-13.5c-3.1-6.3-4.6-15.3-4.6-26.8V23.1z"></path><path fill="#228BE0" d="M214.2,63.2c-2.3,0-3.9-0.5-4.8-1.4c-0.9-0.9-1.4-2.5-1.4-4.8v-9.2c0-2.3,0.5-3.8,1.4-4.7   c0.9-0.9,2.5-1.3,4.8-1.3h120.7c2.3,0,3.8,0.4,4.7,1.3c0.9,0.9,1.3,2.4,1.3,4.7v9.2c0,2.3-0.4,3.9-1.3,4.8   c-0.9,0.9-2.4,1.4-4.7,1.4H214.2z"></path><path fill="#FFFFFF" d="M491.7,41.7c2.3,0,3.9,0.4,4.8,1.3c0.9,0.9,1.4,2.5,1.4,4.9v8.8c0,2.3-0.5,3.9-1.4,4.8   c-0.9,0.9-2.5,1.4-4.8,1.4h-7.2c-7.5,0-46.8,0.8-52.2,2.4c-1.2,0.3-1.8,1.1-1.8,2.4v73.2c0,2.3-0.5,3.9-1.4,4.8   c-0.9,0.9-2.5,1.4-4.8,1.4h-10.8c-2.3,0-3.9-0.5-4.8-1.4c-0.9-0.9-1.4-2.5-1.4-4.8V59.1c0-3.2,0.5-5.6,1.5-7.1c1-1.5,3.1-3,6.3-4.3   c9.7-3.6,55.1-5.6,70.1-6H491.7z"></path><path fill="#FFFFFF" d="M494.8,76.8c0.9,0.9,1.4,2.4,1.4,4.7v59.4c0,2.3-0.5,3.9-1.4,4.8c-0.9,0.9-2.5,1.4-4.8,1.4h-10.8   c-2.3,0-3.9-0.5-4.8-1.4c-0.9-0.9-1.4-2.5-1.4-4.8V81.5c0-2.3,0.5-3.8,1.4-4.7c0.9-0.9,2.5-1.3,4.8-1.3h10.8   C492.3,75.5,493.9,75.9,494.8,76.8z"></path><path fill="#FFFFFF" d="M603.2,45.1c0.9,0.4,1.4,1.2,1.4,2.4c0,0.9-0.3,2.3-1,4l-36.9,90c-0.8,2.1-1.8,3.6-3,4.4s-3,1.2-5.4,1.2   h-6.4c-2.4,0-4.2-0.4-5.4-1.2c-1.2-0.8-2.3-2.3-3.2-4.4l-36.7-89.8c-0.7-2-1-3.3-1-4c0-1.2,0.5-2,1.4-2.5c0.9-0.5,2.5-0.7,4.8-0.7   h7.6c3.7,0,6.3,0.4,7.7,1.2s2.6,2.5,3.5,5l18.6,46.9c1.6,4.4,2.8,8,3.5,10.9c0.7,2.9,1.5,6.4,2.3,10.5h0.8c0.1-0.8,0.4-2.6,0.9-5.3   c0.5-2.7,1.1-5.3,1.8-7.8c0.7-2.5,1.6-5.2,2.7-8.1l18.4-47.1c0.9-2.5,2.1-4.2,3.5-5c1.4-0.8,3.9-1.2,7.5-1.2h8   C600.6,44.5,602.2,44.7,603.2,45.1z"></path><path fill="#FFFFFF" d="M754.3,41.7c2.3,0,3.9,0.4,4.8,1.3c0.9,0.9,1.4,2.5,1.4,4.9v8.8c0,2.3-0.5,3.9-1.4,4.8   c-0.9,0.9-2.5,1.4-4.8,1.4h-7.2c-7.5,0-8.8,0.8-14.2,2.4c-1.2,0.3-1.8,1.1-1.8,2.4v73.2c0,2.3-0.5,3.9-1.4,4.8   c-0.9,0.9-2.5,1.4-4.8,1.4h-10.8c-2.3,0-3.9-0.5-4.8-1.4c-0.9-0.9-1.4-2.5-1.4-4.8V59.1c0-3.2,0.5-5.6,1.5-7.1c1-1.5,3.1-3,6.3-4.3   c9.7-3.6,17.1-5.6,32.1-6H754.3z"></path><path fill="#228BE0" d="M0,174.4v-10.3h854.3v10.3H0z"></path><path fill="#FFFFFF" d="M19.5,213.2c0,0.2-0.1,0.2-0.4,0.2h-0.7c-0.3,0-0.5,0-0.6-0.1c-0.1-0.1-0.2-0.2-0.3-0.3l-4.6-9   c-0.7-1.3-1.5-2.3-2.4-2.8c-0.9-0.6-2.1-0.9-3.7-0.9h-5v12.7c0,0.2,0,0.3-0.1,0.4c-0.1,0.1-0.2,0.1-0.4,0.1H0.5   c-0.2,0-0.3,0-0.4-0.1C0,213.2,0,213.1,0,212.9v-26.6c0-0.2,0-0.3,0.1-0.4s0.2-0.1,0.4-0.1h0.8c0.2,0,0.3,0,0.4,0.1   c0.1,0.1,0.1,0.2,0.1,0.4v12.3h4.8c0.5,0,0.8,0,1,0l9.2-12.4c0.1-0.2,0.3-0.3,0.4-0.3c0.1-0.1,0.3-0.1,0.6-0.1h0.9   c0.2,0,0.3,0,0.3,0.1c0,0.1,0,0.2-0.1,0.4L9.5,199c1.1,0.3,2.1,0.7,2.9,1.4c0.8,0.7,1.5,1.6,2.1,2.9l4.9,9.7   C19.4,213,19.5,213.1,19.5,213.2z"></path><path fill="#FFFFFF" d="M39.6,193c2.8,0,4.8,0.7,5.9,2.1c1.1,1.4,1.7,3.2,1.7,5.5v10.2c0,0.7-0.1,1.2-0.3,1.4   c-0.2,0.3-0.6,0.5-1.1,0.8c-1.6,0.7-3.6,1-6.2,1c-2.2,0-3.9-0.2-5.1-0.7c-1.2-0.4-2-1.1-2.5-1.9c-0.5-0.9-0.7-2-0.7-3.3   c0-1.4,0.3-2.6,0.8-3.5c0.6-0.9,1.5-1.5,2.7-1.8c1.2-0.4,2.9-0.6,4.9-0.6c2,0,3.9,0.2,5.7,0.5v-2.2c0-1.9-0.4-3.3-1.3-4.4   c-0.8-1.1-2.4-1.6-4.7-1.6c-2.9,0-5,1.1-6.2,3.3c-0.1,0.2-0.2,0.2-0.3,0.3c-0.1,0-0.2,0-0.4,0l-0.6-0.2c-0.2-0.1-0.3-0.2-0.3-0.3   c0-0.1,0-0.2,0.1-0.4C33.4,194.3,35.9,193,39.6,193z M39.6,203.5c-2.4,0-4.1,0.3-5.1,1c-1,0.7-1.5,1.8-1.5,3.4c0,1,0.2,1.9,0.5,2.5   c0.4,0.6,1,1.1,2,1.5s2.3,0.5,4,0.5c2.1,0,3.8-0.3,5.2-0.8c0.4-0.2,0.6-0.3,0.7-0.5c0.1-0.2,0.2-0.5,0.2-1V204   C43.6,203.7,41.6,203.5,39.6,203.5z"></path><path fill="#FFFFFF" d="M75.7,193.6c0.1,0.1,0.1,0.2,0.1,0.3v0.7c0,0.2,0,0.3-0.1,0.3c-0.1,0.1-0.2,0.1-0.4,0.1h-6.7v17.9   c0,0.2,0,0.3-0.1,0.4c-0.1,0.1-0.2,0.1-0.3,0.1h-0.8c-0.2,0-0.3,0-0.3-0.1c-0.1-0.1-0.1-0.2-0.1-0.4V195h-6.8c-0.2,0-0.3,0-0.4-0.1   c-0.1-0.1-0.1-0.2-0.1-0.3v-0.7c0-0.2,0-0.3,0.1-0.3c0.1-0.1,0.2-0.1,0.4-0.1h15.2C75.6,193.5,75.7,193.6,75.7,193.6z"></path><path fill="#FFFFFF" d="M95.8,193c2.8,0,4.8,0.7,5.9,2.1c1.1,1.4,1.7,3.2,1.7,5.5v10.2c0,0.7-0.1,1.2-0.3,1.4   c-0.2,0.3-0.6,0.5-1.1,0.8c-1.6,0.7-3.6,1-6.2,1c-2.2,0-3.9-0.2-5.1-0.7c-1.2-0.4-2-1.1-2.5-1.9c-0.5-0.9-0.7-2-0.7-3.3   c0-1.4,0.3-2.6,0.8-3.5c0.6-0.9,1.5-1.5,2.7-1.8c1.2-0.4,2.9-0.6,4.9-0.6c2,0,3.9,0.2,5.7,0.5v-2.2c0-1.9-0.4-3.3-1.3-4.4   c-0.8-1.1-2.4-1.6-4.7-1.6c-2.9,0-5,1.1-6.2,3.3c-0.1,0.2-0.2,0.2-0.3,0.3c-0.1,0-0.2,0-0.4,0l-0.6-0.2c-0.2-0.1-0.3-0.2-0.3-0.3   c0-0.1,0-0.2,0.1-0.4C89.6,194.3,92.1,193,95.8,193z M95.9,203.5c-2.4,0-4.1,0.3-5.1,1c-1,0.7-1.5,1.8-1.5,3.4c0,1,0.2,1.9,0.5,2.5   c0.4,0.6,1,1.1,2,1.5s2.3,0.5,4,0.5c2.1,0,3.8-0.3,5.2-0.8c0.4-0.2,0.6-0.3,0.7-0.5c0.1-0.2,0.2-0.5,0.2-1V204   C99.8,203.7,97.8,203.5,95.9,203.5z"></path><path fill="#FFFFFF" d="M133.7,193.9v19c0,0.2,0,0.3-0.1,0.4c-0.1,0.1-0.2,0.1-0.3,0.1h-0.8c-0.2,0-0.3,0-0.4-0.1   c-0.1-0.1-0.1-0.2-0.1-0.4v-17.9h-10.3v5.6c0,3.2-0.2,5.6-0.7,7.4c-0.5,1.8-1,3.1-1.8,3.9c-0.7,0.8-1.6,1.4-2.7,1.9   c-0.1,0.1-0.2,0.1-0.2,0.1c-0.1,0-0.2-0.1-0.3-0.3l-0.4-0.8c-0.1-0.1-0.1-0.2-0.1-0.2c0-0.1,0.1-0.2,0.2-0.3   c0.9-0.4,1.6-0.9,2.2-1.5c0.6-0.6,1-1.7,1.4-3.3c0.4-1.6,0.6-3.9,0.6-7v-6.7c0-0.2,0-0.3,0.1-0.3c0.1-0.1,0.2-0.1,0.4-0.1h12.7   C133.6,193.5,133.7,193.7,133.7,193.9z"></path><path fill="#FFFFFF" d="M150.7,194.8c1.5-1.2,3.5-1.8,6.1-1.8c2.6,0,4.6,0.6,6.1,1.8c1.5,1.2,2.3,2.9,2.3,5v7.3   c0,2.1-0.8,3.8-2.3,5c-1.5,1.2-3.6,1.8-6.1,1.8c-2.5,0-4.6-0.6-6.1-1.8c-1.5-1.2-2.3-2.9-2.3-5v-7.3   C148.4,197.7,149.1,196.1,150.7,194.8z M161.7,195.9c-1.2-0.9-2.9-1.4-4.9-1.4c-2,0-3.6,0.5-4.8,1.4c-1.2,1-1.8,2.2-1.8,3.8v7.4   c0,1.6,0.6,2.9,1.8,3.8c1.2,1,2.8,1.4,4.8,1.4c2.1,0,3.7-0.5,4.9-1.4c1.2-0.9,1.8-2.2,1.8-3.9v-7.4   C163.5,198.1,162.9,196.9,161.7,195.9z"></path><path fill="#FFFFFF" d="M192.9,193.6c0.1,0.1,0.1,0.2,0.1,0.3v0.7c0,0.2,0,0.3-0.1,0.3c-0.1,0.1-0.2,0.1-0.4,0.1h-11v17.9   c0,0.2,0,0.3-0.1,0.4c-0.1,0.1-0.2,0.1-0.4,0.1h-0.7c-0.3,0-0.5-0.2-0.5-0.5v-19c0-0.2,0-0.3,0.1-0.3c0.1-0.1,0.2-0.1,0.4-0.1h12.2   C192.7,193.5,192.8,193.6,192.9,193.6z"></path><path fill="#FFFFFF" d="M258.4,184.4l0.3-0.1c0.1,0,0.2,0.1,0.3,0.3l0.2,0.6l0,0.2c0,0.1-0.1,0.3-0.3,0.4c-0.8,0.4-2,0.6-3.7,0.6   h-1.4c-2.3,0-4.2,0.3-5.4,0.9c-1.3,0.6-2.2,1.6-2.7,3c-0.5,1.4-0.8,3.3-0.8,5.8v1c0.6-0.9,1.5-1.7,2.7-2.4c1.1-0.7,2.7-1,4.5-1   c2.6,0,4.6,0.7,6.1,2c1.4,1.3,2.1,3.1,2.1,5.5v5.3c0,2.4-0.7,4.2-2.2,5.5c-1.4,1.3-3.6,1.9-6.3,1.9c-2.7,0-4.8-0.7-6.3-2   c-1.4-1.3-2.2-3.1-2.2-5.5v-9.9c0-2.9,0.3-5.2,1-6.9c0.6-1.7,1.7-2.9,3.2-3.7s3.6-1.2,6.3-1.2h1.4   C256.7,184.9,257.8,184.8,258.4,184.4z M256.8,196.9c-1.2-1-2.9-1.6-5.1-1.6c-1.4,0-2.5,0.3-3.5,0.8c-1,0.5-1.7,1.1-2.3,1.7   c-0.5,0.6-0.9,1.2-1,1.7v7c0,1.9,0.6,3.3,1.7,4.3c1.2,1,2.8,1.6,5,1.6c2.2,0,3.9-0.5,5.1-1.6c1.2-1,1.7-2.5,1.7-4.3v-5.3   C258.5,199.4,258,197.9,256.8,196.9z"></path><path fill="#FFFFFF" d="M276.2,195.1c1.4-1.4,3.5-2.1,6.3-2.1c2.8,0,4.8,0.7,6.3,2.2c1.4,1.4,2.1,3.4,2.1,5.8v2.1   c0,0.6-0.3,0.9-0.9,0.9h-14.3v2.6c0,1.9,0.6,3.4,1.7,4.4c1.1,1.1,2.7,1.6,4.9,1.6c1.7,0,3.2-0.3,4.3-1c1.1-0.7,2-1.6,2.6-2.8   c0.1-0.2,0.2-0.2,0.3-0.3c0.1,0,0.2,0,0.4,0.1l0.5,0.3c0.2,0.1,0.3,0.2,0.3,0.3c0,0.1,0,0.2-0.1,0.3c-1.6,3-4.3,4.4-8.3,4.4   c-2.7,0-4.7-0.7-6.1-2c-1.4-1.4-2.1-3.2-2.1-5.6v-5.2C274,198.5,274.7,196.5,276.2,195.1z M287.5,196.2c-1.2-1.1-2.8-1.7-5.1-1.7   c-2.2,0-3.9,0.6-5,1.7c-1.1,1.1-1.7,2.7-1.7,4.7v1.6h13.5v-1.6C289.2,198.9,288.6,197.3,287.5,196.2z"></path><path fill="#FFFFFF" d="M306.5,194.9c1.4-1.3,3.5-2,6.2-2c2.3,0,4.1,0.4,5.4,1.3c1.3,0.9,2.2,2.2,2.7,3.9c0,0.1,0,0.2,0,0.3   c0,0.2-0.1,0.3-0.3,0.4l-0.7,0.2c-0.1,0-0.1,0-0.2,0c-0.2,0-0.3-0.1-0.4-0.3c-0.5-1.5-1.2-2.6-2.2-3.3c-1-0.7-2.4-1-4.3-1   c-2.2,0-3.8,0.5-4.9,1.6c-1.1,1-1.7,2.5-1.7,4.3v6.1c0,1.9,0.6,3.3,1.7,4.4c1.1,1.1,2.8,1.6,4.9,1.6c1.8,0,3.3-0.4,4.4-1.1   c1.1-0.8,1.8-1.9,2.3-3.5c0.1-0.2,0.2-0.3,0.2-0.3c0.1,0,0.2,0,0.4,0l0.7,0.2c0.2,0.1,0.3,0.1,0.3,0.2c0.1,0.1,0.1,0.2,0,0.4   c-0.6,1.9-1.5,3.3-2.9,4.2c-1.3,0.9-3.1,1.4-5.4,1.4c-2.7,0-4.7-0.7-6.1-2c-1.4-1.3-2.1-3.2-2.1-5.6v-5.9   C304.4,198.1,305.1,196.2,306.5,194.9z"></path><path fill="#FFFFFF" d="M350.9,193.6c0.1,0.1,0.1,0.2,0.1,0.3v19c0,0.2,0,0.3-0.1,0.4c-0.1,0.1-0.2,0.1-0.4,0.1h-0.8   c-0.2,0-0.3,0-0.3-0.1c-0.1-0.1-0.1-0.2-0.1-0.4V195h-12.7v17.9c0,0.2,0,0.3-0.1,0.4c-0.1,0.1-0.2,0.1-0.4,0.1h-0.7   c-0.3,0-0.5-0.2-0.5-0.5v-19c0-0.2,0-0.3,0.1-0.3c0.1-0.1,0.2-0.1,0.4-0.1h15.1C350.7,193.5,350.8,193.6,350.9,193.6z"></path><path fill="#FFFFFF" d="M381.6,193.9v19c0,0.2,0,0.3-0.1,0.4c-0.1,0.1-0.2,0.1-0.3,0.1h-0.8c-0.2,0-0.3,0-0.4-0.1   c-0.1-0.1-0.1-0.2-0.1-0.4v-17.9h-10.3v5.6c0,3.2-0.2,5.6-0.7,7.4c-0.5,1.8-1,3.1-1.8,3.9c-0.7,0.8-1.6,1.4-2.7,1.9   c-0.1,0.1-0.2,0.1-0.2,0.1c-0.1,0-0.2-0.1-0.3-0.3l-0.4-0.8c-0.1-0.1-0.1-0.2-0.1-0.2c0-0.1,0.1-0.2,0.2-0.3   c0.9-0.4,1.6-0.9,2.2-1.5c0.6-0.6,1-1.7,1.4-3.3c0.4-1.6,0.6-3.9,0.6-7v-6.7c0-0.2,0-0.3,0.1-0.3c0.1-0.1,0.2-0.1,0.4-0.1h12.7   C381.4,193.5,381.6,193.7,381.6,193.9z"></path><path fill="#FFFFFF" d="M404,193c2.8,0,4.8,0.7,5.9,2.1c1.1,1.4,1.7,3.2,1.7,5.5v10.2c0,0.7-0.1,1.2-0.3,1.4   c-0.2,0.3-0.6,0.5-1.1,0.8c-1.6,0.7-3.6,1-6.2,1c-2.2,0-3.9-0.2-5.1-0.7c-1.2-0.4-2-1.1-2.5-1.9c-0.5-0.9-0.7-2-0.7-3.3   c0-1.4,0.3-2.6,0.8-3.5c0.6-0.9,1.5-1.5,2.7-1.8c1.2-0.4,2.9-0.6,4.9-0.6c2,0,3.9,0.2,5.7,0.5v-2.2c0-1.9-0.4-3.3-1.3-4.4   c-0.8-1.1-2.4-1.6-4.7-1.6c-2.9,0-5,1.1-6.2,3.3c-0.1,0.2-0.2,0.2-0.3,0.3c-0.1,0-0.2,0-0.4,0l-0.6-0.2c-0.2-0.1-0.3-0.2-0.3-0.3   c0-0.1,0-0.2,0.1-0.4C397.8,194.3,400.3,193,404,193z M404,203.5c-2.4,0-4.1,0.3-5.1,1c-1,0.7-1.5,1.8-1.5,3.4c0,1,0.2,1.9,0.5,2.5   c0.4,0.6,1,1.1,2,1.5s2.3,0.5,4,0.5c2.1,0,3.8-0.3,5.2-0.8c0.4-0.2,0.6-0.3,0.7-0.5c0.1-0.2,0.2-0.5,0.2-1V204   C408,203.7,406,203.5,404,203.5z"></path><path fill="#FFFFFF" d="M440.1,193.6c0.1,0.1,0.1,0.2,0.1,0.3v0.7c0,0.2,0,0.3-0.1,0.3c-0.1,0.1-0.2,0.1-0.4,0.1H433v17.9   c0,0.2,0,0.3-0.1,0.4c-0.1,0.1-0.2,0.1-0.3,0.1h-0.8c-0.2,0-0.3,0-0.3-0.1s-0.1-0.2-0.1-0.4V195h-6.8c-0.2,0-0.3,0-0.4-0.1   c-0.1-0.1-0.1-0.2-0.1-0.3v-0.7c0-0.2,0-0.3,0.1-0.3c0.1-0.1,0.2-0.1,0.4-0.1h15.2C440,193.5,440.1,193.6,440.1,193.6z"></path><path fill="#FFFFFF" d="M469.4,193.6c0.1,0.1,0.1,0.2,0.1,0.3v19c0,0.2,0,0.3-0.1,0.4c-0.1,0.1-0.2,0.1-0.4,0.1h-0.8   c-0.2,0-0.3,0-0.4-0.1c-0.1-0.1-0.1-0.2-0.1-0.4v-9H455v9c0,0.2,0,0.3-0.1,0.4c-0.1,0.1-0.2,0.1-0.4,0.1h-0.7   c-0.3,0-0.5-0.2-0.5-0.5v-19c0-0.2,0-0.3,0.1-0.3c0.1-0.1,0.2-0.1,0.4-0.1h0.7c0.2,0,0.3,0,0.4,0.1c0.1,0.1,0.1,0.2,0.1,0.3v8.5   h12.9v-8.5c0-0.2,0-0.3,0.1-0.3c0.1-0.1,0.2-0.1,0.4-0.1h0.8C469.3,193.5,469.4,193.6,469.4,193.6z"></path><path fill="#FFFFFF" d="M499.1,201.8c1.2,1.1,1.8,2.8,1.8,4.9c0,2.1-0.6,3.8-1.8,5c-1.2,1.2-2.9,1.7-5,1.7h-8.8   c-0.2,0-0.3,0-0.4-0.1c-0.1-0.1-0.1-0.2-0.1-0.4v-19c0-0.2,0-0.3,0.1-0.3c0.1-0.1,0.2-0.1,0.4-0.1h0.7c0.2,0,0.3,0,0.4,0.1   c0.1,0.1,0.1,0.2,0.1,0.3v6.2h7.6C496.2,200.1,497.9,200.7,499.1,201.8z M497.8,210.5c0.9-0.9,1.4-2.2,1.4-3.8   c0-1.7-0.5-2.9-1.4-3.8c-0.9-0.9-2.2-1.3-3.9-1.3h-7.4v10.3h7.4C495.6,211.9,496.9,211.4,497.8,210.5z M506.3,193.6   c0.1,0.1,0.1,0.2,0.1,0.3v19c0,0.2,0,0.3-0.1,0.4c-0.1,0.1-0.2,0.1-0.4,0.1h-0.7c-0.2,0-0.3,0-0.4-0.1c-0.1-0.1-0.1-0.2-0.1-0.4   v-19c0-0.2,0-0.3,0.1-0.3c0.1-0.1,0.2-0.1,0.4-0.1h0.7C506.2,193.5,506.3,193.6,506.3,193.6z"></path><path fill="#FFFFFF" d="M536.5,194l-7.1,9.2l7.5,9.7c0.1,0.1,0.1,0.2,0.1,0.3c0,0.1-0.1,0.2-0.4,0.2h-0.8c-0.2,0-0.4,0-0.5-0.1   c-0.1-0.1-0.2-0.2-0.3-0.3l-6.7-8.7l-6.7,8.7c-0.1,0.2-0.2,0.3-0.3,0.3c-0.1,0-0.3,0.1-0.5,0.1h-0.8c-0.2,0-0.4,0-0.4-0.1   c0-0.1,0-0.2,0.1-0.3l7.5-9.8l-7.1-9.2c-0.1-0.1-0.1-0.2-0.1-0.3c0-0.1,0.1-0.2,0.4-0.2h0.8c0.2,0,0.4,0,0.5,0.1   c0.1,0,0.2,0.1,0.3,0.3l6.3,8.1l6.3-8.1c0.1-0.2,0.2-0.3,0.3-0.3c0.1,0,0.2-0.1,0.5-0.1h0.8C536.6,193.5,536.7,193.7,536.5,194z"></path><path fill="#FFFFFF" d="M606.5,211.9c0.1,0.1,0.1,0.2,0.1,0.4v6c0,0.2,0,0.3-0.1,0.4c-0.1,0.1-0.2,0.1-0.4,0.1h-0.7   c-0.2,0-0.3,0-0.4-0.1c-0.1-0.1-0.1-0.2-0.1-0.4v-4.9h-18.1v4.9c0,0.2,0,0.3-0.1,0.4c-0.1,0.1-0.2,0.1-0.4,0.1h-0.7   c-0.2,0-0.3,0-0.4-0.1s-0.1-0.2-0.1-0.4v-6c0-0.2,0-0.3,0.1-0.4c0.1-0.1,0.2-0.1,0.4-0.1h1.3c0.6-0.5,1.1-1.1,1.5-1.8   c0.4-0.7,0.8-1.9,1-3.4c0.3-1.6,0.4-3.7,0.4-6.4v-6.3c0-0.2,0-0.3,0.1-0.3c0.1-0.1,0.2-0.1,0.4-0.1h13c0.3,0,0.4,0.1,0.4,0.4v17.9   h2.3C606.4,211.8,606.5,211.9,606.5,211.9z M591,208c-0.4,1.7-1.1,3-1.9,3.9h13.1V195h-10.5v5.2C591.7,203.7,591.4,206.3,591,208z"></path><path fill="#FFFFFF" d="M628,193c5.4,0,8,2.6,8,7.8v5.7c0,2.4-0.6,4.3-1.9,5.6c-1.2,1.3-3.2,1.9-5.8,1.9c-2.2,0-4.4-0.6-6.7-1.7   v9.2c0,0.2,0,0.3-0.1,0.4c-0.1,0.1-0.2,0.1-0.4,0.1h-0.7c-0.2,0-0.3,0-0.4-0.1c-0.1-0.1-0.1-0.2-0.1-0.4v-25.2   c0-0.6,0.1-1.1,0.3-1.3s0.6-0.5,1.2-0.8C623.3,193.4,625.5,193,628,193z M627.8,194.5c-1.9,0-3.6,0.3-5.2,0.9   c-0.4,0.2-0.7,0.3-0.8,0.5c-0.1,0.1-0.2,0.4-0.2,0.8v14c2.3,1.1,4.5,1.7,6.7,1.7c4.1,0,6.1-2,6.1-6.1v-5.6   C634.3,196.6,632.2,194.5,627.8,194.5z"></path><path fill="#FFFFFF" d="M657.7,193c2.8,0,4.8,0.7,5.9,2.1c1.1,1.4,1.7,3.2,1.7,5.5v10.2c0,0.7-0.1,1.2-0.3,1.4   c-0.2,0.3-0.6,0.5-1.1,0.8c-1.6,0.7-3.6,1-6.2,1c-2.2,0-3.9-0.2-5.1-0.7c-1.2-0.4-2-1.1-2.5-1.9s-0.7-2-0.7-3.3   c0-1.4,0.3-2.6,0.8-3.5c0.6-0.9,1.5-1.5,2.7-1.8c1.2-0.4,2.9-0.6,4.9-0.6c2,0,3.9,0.2,5.7,0.5v-2.2c0-1.9-0.4-3.3-1.3-4.4   c-0.8-1.1-2.4-1.6-4.7-1.6c-2.9,0-5,1.1-6.2,3.3c-0.1,0.2-0.2,0.2-0.3,0.3c-0.1,0-0.2,0-0.4,0l-0.6-0.2c-0.2-0.1-0.3-0.2-0.3-0.3   c0-0.1,0-0.2,0.1-0.4C651.5,194.3,654.1,193,657.7,193z M657.8,203.5c-2.4,0-4.1,0.3-5.1,1c-1,0.7-1.5,1.8-1.5,3.4   c0,1,0.2,1.9,0.5,2.5c0.4,0.6,1,1.1,2,1.5s2.3,0.5,4,0.5c2.1,0,3.8-0.3,5.1-0.8c0.4-0.2,0.6-0.3,0.7-0.5c0.1-0.2,0.2-0.5,0.2-1V204   C661.7,203.7,659.7,203.5,657.8,203.5z"></path><path fill="#FFFFFF" d="M681.9,193.6c0.1,0.1,0.1,0.2,0.1,0.3v13.2c0,1.3-0.1,2.6-0.2,3.9h0.1c0.4-0.7,1.1-1.6,1.9-2.8l11.3-14.5   c0.1-0.1,0.2-0.2,0.4-0.2h0.8c0.2,0,0.3,0,0.4,0.1c0.1,0.1,0.1,0.2,0.1,0.3v19c0,0.2,0,0.3-0.1,0.4c-0.1,0.1-0.2,0.1-0.4,0.1h-0.8   c-0.2,0-0.3,0-0.4-0.1c-0.1-0.1-0.1-0.2-0.1-0.4v-12.8c0-1.6,0.1-3,0.2-4.2h-0.1c-0.2,0.4-0.8,1.1-1.6,2.3l-0.5,0.7L682,213.1   c-0.2,0.2-0.3,0.3-0.5,0.3h-0.7c-0.3,0-0.5-0.2-0.5-0.5v-19c0-0.2,0-0.3,0.1-0.3c0.1-0.1,0.2-0.1,0.4-0.1h0.7   C681.7,193.5,681.8,193.6,681.9,193.6z M692.4,189.4c-0.9,0.7-2.2,1.1-3.8,1.1c-1.6,0-2.8-0.4-3.7-1.1s-1.6-1.8-2-3.2   c0-0.1,0-0.1,0-0.2c0-0.2,0.1-0.2,0.2-0.3l0.6-0.2c0.1,0,0.1,0,0.2,0c0.2,0,0.2,0.1,0.3,0.2c0.3,1.2,0.9,2.1,1.6,2.7   c0.7,0.6,1.7,0.9,2.9,0.9s2.2-0.3,2.9-0.9s1.3-1.5,1.6-2.7c0.1-0.1,0.1-0.2,0.2-0.2c0.1,0,0.1,0,0.3,0l0.7,0.2   c0.1,0.1,0.2,0.1,0.2,0.2c0,0.1,0,0.2,0,0.3C694,187.6,693.4,188.7,692.4,189.4z"></path><path fill="#FFFFFF" d="M725,203c1.1,0.4,2,1,2.5,1.8c0.5,0.8,0.8,1.9,0.8,3.2c0,1.7-0.5,3-1.5,4c-1,1-2.3,1.4-4.1,1.4h-10.2   c-0.3,0-0.5-0.2-0.5-0.5V194c0-0.3,0.2-0.5,0.5-0.5h9.6c1.7,0,3,0.4,4,1.3c0.9,0.9,1.4,2.1,1.4,3.7   C727.5,200.7,726.7,202.2,725,203z M724.9,201.4c0.7-0.7,1-1.6,1-2.8c0-1.2-0.3-2.1-1-2.8c-0.7-0.6-1.7-0.9-2.9-0.9h-8.2v7.5h8.4   C723.3,202.4,724.2,202.1,724.9,201.4z M725.5,210.9c0.7-0.7,1.1-1.7,1.1-3s-0.4-2.3-1.1-3s-1.8-1.1-3.1-1.1h-8.6v8.2h8.7   C723.7,212,724.7,211.6,725.5,210.9z"></path><path fill="#FFFFFF" d="M744,195.1c1.4-1.4,3.5-2.1,6.3-2.1c2.8,0,4.8,0.7,6.3,2.2c1.4,1.4,2.1,3.4,2.1,5.8v2.1   c0,0.6-0.3,0.9-0.9,0.9h-14.3v2.6c0,1.9,0.6,3.4,1.7,4.4c1.1,1.1,2.7,1.6,4.9,1.6c1.7,0,3.2-0.3,4.3-1c1.1-0.7,2-1.6,2.6-2.8   c0.1-0.2,0.2-0.2,0.3-0.3c0.1,0,0.2,0,0.4,0.1l0.5,0.3c0.2,0.1,0.3,0.2,0.3,0.3c0,0.1,0,0.2-0.1,0.3c-1.6,3-4.3,4.4-8.3,4.4   c-2.7,0-4.7-0.7-6.1-2c-1.4-1.4-2.1-3.2-2.1-5.6v-5.2C741.8,198.5,742.5,196.5,744,195.1z M755.3,196.2c-1.2-1.1-2.8-1.7-5.1-1.7   c-2.2,0-3.9,0.6-5,1.7c-1.1,1.1-1.7,2.7-1.7,4.7v1.6H757v-1.6C757,198.9,756.4,197.3,755.3,196.2z"></path><path fill="#FFFFFF" d="M780.9,193c5.4,0,8,2.6,8,7.8v5.7c0,2.4-0.6,4.3-1.9,5.6s-3.2,1.9-5.8,1.9c-2.2,0-4.4-0.6-6.7-1.7v9.2   c0,0.2,0,0.3-0.1,0.4c-0.1,0.1-0.2,0.1-0.4,0.1h-0.7c-0.2,0-0.3,0-0.4-0.1c-0.1-0.1-0.1-0.2-0.1-0.4v-25.2c0-0.6,0.1-1.1,0.3-1.3   s0.6-0.5,1.2-0.8C776.3,193.4,778.4,193,780.9,193z M780.7,194.5c-1.9,0-3.6,0.3-5.2,0.9c-0.4,0.2-0.7,0.3-0.8,0.5   c-0.1,0.1-0.2,0.4-0.2,0.8v14c2.3,1.1,4.5,1.7,6.7,1.7c4.1,0,6.1-2,6.1-6.1v-5.6C787.3,196.6,785.1,194.5,780.7,194.5z"></path><path fill="#FFFFFF" d="M805.2,194.8c1.5-1.2,3.5-1.8,6.1-1.8c2.6,0,4.6,0.6,6.1,1.8c1.5,1.2,2.3,2.9,2.3,5v7.3   c0,2.1-0.8,3.8-2.3,5c-1.5,1.2-3.6,1.8-6.1,1.8c-2.5,0-4.6-0.6-6.1-1.8c-1.5-1.2-2.3-2.9-2.3-5v-7.3   C802.9,197.7,803.7,196.1,805.2,194.8z M816.2,195.9c-1.2-0.9-2.9-1.4-4.9-1.4c-2,0-3.6,0.5-4.8,1.4c-1.2,1-1.8,2.2-1.8,3.8v7.4   c0,1.6,0.6,2.9,1.8,3.8c1.2,1,2.8,1.4,4.8,1.4c2.1,0,3.7-0.5,4.9-1.4c1.2-0.9,1.8-2.2,1.8-3.9v-7.4   C818,198.1,817.4,196.9,816.2,195.9z"></path><path fill="#FFFFFF" d="M847.3,203c1.1,0.4,2,1,2.5,1.8c0.5,0.8,0.8,1.9,0.8,3.2c0,1.7-0.5,3-1.5,4c-1,1-2.3,1.4-4.1,1.4h-10.2   c-0.3,0-0.5-0.2-0.5-0.5V194c0-0.3,0.2-0.5,0.5-0.5h9.6c1.7,0,3,0.4,4,1.3c0.9,0.9,1.4,2.1,1.4,3.7   C849.8,200.7,849,202.2,847.3,203z M847.2,201.4c0.7-0.7,1-1.6,1-2.8c0-1.2-0.3-2.1-1-2.8c-0.7-0.6-1.7-0.9-2.9-0.9H836v7.5h8.4   C845.6,202.4,846.5,202.1,847.2,201.4z M847.7,210.9c0.7-0.7,1.1-1.7,1.1-3s-0.4-2.3-1.1-3s-1.8-1.1-3.1-1.1H836v8.2h8.7   C846,212,847,211.6,847.7,210.9z"></path></svg>