<?xml version="1.0" standalone="no"?>
<!DOCTYPE svg PUBLIC "-//W3C//DTD SVG 20010904//EN"
 "http://www.w3.org/TR/2001/REC-SVG-20010904/DTD/svg10.dtd">
<svg version="1.0" xmlns="http://www.w3.org/2000/svg"
 width="358.000000pt" height="358.000000pt" viewBox="0 0 358.000000 358.000000"
 preserveAspectRatio="xMidYMid meet">
<metadata>
Created by potrace 1.14, written by Peter Selinger 2001-2017
</metadata>
<g transform="translate(0.000000,358.000000) scale(0.100000,-0.100000)"
fill="#000000" stroke="none">
<path d="M379 3565 c-177 -48 -318 -190 -365 -368 -11 -43 -14 -288 -13 -1407
0 -1278 1 -1359 18 -1423 47 -174 202 -319 379 -356 38 -8 452 -11 1400 -11
1132 0 1356 3 1401 15 164 43 296 164 355 323 21 57 21 66 23 1427 2 946 -1
1385 -8 1420 -41 189 -206 349 -394 384 -91 17 -2734 13 -2796 -4z"/>
</g>
</svg>
