<?xml version="1.0" standalone="no"?>
<!DOCTYPE svg PUBLIC "-//W3C//DTD SVG 20010904//EN"
 "http://www.w3.org/TR/2001/REC-SVG-20010904/DTD/svg10.dtd">
<svg version="1.0" xmlns="http://www.w3.org/2000/svg"
 width="1216.000000pt" height="1216.000000pt" viewBox="0 0 1216.000000 1216.000000"
 preserveAspectRatio="xMidYMid meet">
<metadata>
Created by potrace 1.11, written by Peter Selinger 2001-2013
</metadata>
<g transform="translate(0.000000,1216.000000) scale(0.100000,-0.100000)"
fill="#000000" stroke="none">
<path d="M5680 10869 c-595 -40 -1234 -185 -1820 -414 -969 -379 -1838 -1013
-2516 -1835 -730 -886 -1203 -2017 -1320 -3160 -21 -211 -30 -804 -15 -1030
56 -835 298 -1660 710 -2420 89 -164 234 -404 307 -506 112 -157 236 -224 415
-224 116 0 151 12 464 162 871 417 852 406 926 520 107 167 105 373 -7 535
-108 158 -327 238 -516 188 -31 -8 -109 -40 -175 -71 -65 -31 -206 -98 -314
-149 l-195 -92 -28 51 c-189 343 -338 707 -440 1071 -88 314 -128 531 -168
895 -17 156 -17 747 0 910 37 354 83 599 172 915 46 160 121 385 138 413 9 13
12 12 402 -173 374 -177 366 -174 495 -175 191 0 377 128 446 308 27 71 36
194 19 271 -18 81 -67 167 -132 233 -46 46 -83 70 -180 117 -146 70 -432 205
-541 255 l-78 35 62 93 c207 310 397 544 648 797 694 701 1553 1179 2539 1411
124 29 440 81 577 95 33 3 70 8 82 11 l22 4 3 -397 c4 -381 5 -401 26 -457 50
-134 144 -233 271 -288 71 -31 83 -33 191 -32 102 0 122 3 180 27 136 57 241
169 282 300 22 70 23 85 23 459 l0 387 45 -5 c257 -30 545 -77 695 -115 290
-73 634 -188 865 -289 185 -81 316 -80 475 3 124 66 223 206 246 348 24 140
-32 299 -138 401 -78 73 -119 96 -329 179 -377 150 -623 226 -976 304 -353 77
-602 114 -923 135 -176 11 -735 11 -915 -1z"/>
<path d="M9697 8959 c-120 -18 -75 9 -1102 -657 -258 -168 -533 -347 -610
-397 -77 -51 -309 -202 -515 -337 -582 -380 -1522 -1006 -1821 -1213 -606
-419 -752 -533 -870 -675 -200 -240 -300 -517 -300 -826 0 -276 79 -528 239
-754 67 -95 244 -267 343 -333 99 -66 260 -145 371 -181 261 -88 654 -88 916
-1 206 69 442 214 573 351 277 292 1268 1606 2707 3589 124 171 293 403 376
517 83 114 163 229 178 255 127 221 42 500 -187 616 -80 40 -205 60 -298 46z
m-1794 -2211 c-6 -7 -68 -92 -138 -188 -154 -210 -1012 -1353 -1122 -1496
-413 -532 -452 -573 -599 -625 -83 -29 -226 -29 -308 0 -124 44 -214 124 -270
241 -29 61 -31 73 -31 175 0 104 2 113 33 175 18 36 49 84 70 106 104 113 575
436 2327 1596 46 31 51 33 38 16z"/>
<path d="M11115 7680 c-182 -38 -323 -166 -377 -343 -16 -54 -19 -86 -16 -155
4 -82 10 -102 100 -327 176 -441 267 -772 327 -1190 46 -323 55 -445 55 -775
0 -320 -8 -449 -50 -740 -64 -453 -194 -911 -376 -1329 -63 -146 -213 -436
-224 -434 -5 1 -150 70 -323 153 -173 83 -339 158 -370 166 -152 39 -321 -9
-441 -126 -205 -199 -183 -560 43 -726 33 -25 96 -62 141 -83 44 -21 149 -71
231 -111 83 -39 291 -139 463 -222 l314 -151 102 -5 c203 -9 324 56 446 238
381 571 701 1321 850 1996 115 521 150 845 150 1372 0 525 -36 860 -141 1340
-86 389 -245 873 -383 1164 -99 209 -318 329 -521 288z"/>
</g>
</svg>
